{
	"patcher" : 	{
		"fileversion" : 1,
		"appversion" : 		{
			"major" : 9,
			"minor" : 0,
			"revision" : 2,
			"architecture" : "x64",
			"modernui" : 1
		}
,
		"classnamespace" : "box",
		"rect" : [ 34.0, 100.0, 1660.0, 964.0 ],
		"gridsize" : [ 15.0, 15.0 ],
		"boxes" : [ 			{
				"box" : 				{
					"id" : "obj-179",
					"linecount" : 2,
					"maxclass" : "comment",
					"numinlets" : 1,
					"numoutlets" : 0,
					"patching_rect" : [ 810.0, 658.5, 43.0, 33.0 ],
					"presentation_linecount" : 2,
					"text" : "Start/Stop"
				}

			}
, 			{
				"box" : 				{
					"id" : "obj-178",
					"maxclass" : "comment",
					"numinlets" : 1,
					"numoutlets" : 0,
					"patching_rect" : [ 810.0, 755.0, 32.0, 20.0 ],
					"text" : "Dist."
				}

			}
, 			{
				"box" : 				{
					"id" : "obj-176",
					"maxclass" : "comment",
					"numinlets" : 1,
					"numoutlets" : 0,
					"patching_rect" : [ 810.0, 726.0, 58.0, 20.0 ],
					"presentation_linecount" : 2,
					"text" : "Elevation"
				}

			}
, 			{
				"box" : 				{
					"id" : "obj-175",
					"maxclass" : "comment",
					"numinlets" : 1,
					"numoutlets" : 0,
					"patching_rect" : [ 810.0, 694.0, 43.0, 20.0 ],
					"text" : "Speed"
				}

			}
, 			{
				"box" : 				{
					"format" : 6,
					"id" : "obj-173",
					"maxclass" : "flonum",
					"numinlets" : 1,
					"numoutlets" : 2,
					"outlettype" : [ "", "bang" ],
					"parameter_enable" : 0,
					"patching_rect" : [ 867.0, 754.0, 50.0, 22.0 ]
				}

			}
, 			{
				"box" : 				{
					"format" : 6,
					"id" : "obj-171",
					"maxclass" : "flonum",
					"numinlets" : 1,
					"numoutlets" : 2,
					"outlettype" : [ "", "bang" ],
					"parameter_enable" : 0,
					"patching_rect" : [ 867.0, 725.0, 50.0, 22.0 ]
				}

			}
, 			{
				"box" : 				{
					"format" : 6,
					"id" : "obj-169",
					"maxclass" : "flonum",
					"numinlets" : 1,
					"numoutlets" : 2,
					"outlettype" : [ "", "bang" ],
					"parameter_enable" : 0,
					"patching_rect" : [ 867.0, 693.0, 50.0, 22.0 ]
				}

			}
, 			{
				"box" : 				{
					"id" : "obj-167",
					"maxclass" : "toggle",
					"numinlets" : 1,
					"numoutlets" : 1,
					"outlettype" : [ "int" ],
					"parameter_enable" : 0,
					"patching_rect" : [ 867.0, 663.0, 24.0, 24.0 ],
					"svg" : ""
				}

			}
, 			{
				"box" : 				{
					"id" : "obj-165",
					"maxclass" : "newobj",
					"numinlets" : 4,
					"numoutlets" : 1,
					"outlettype" : [ "" ],
					"patcher" : 					{
						"fileversion" : 1,
						"appversion" : 						{
							"major" : 9,
							"minor" : 0,
							"revision" : 2,
							"architecture" : "x64",
							"modernui" : 1
						}
,
						"classnamespace" : "box",
						"rect" : [ 255.0, 303.0, 1000.0, 780.0 ],
						"gridsize" : [ 15.0, 15.0 ],
						"boxes" : [ 							{
								"box" : 								{
									"id" : "obj-9",
									"maxclass" : "newobj",
									"numinlets" : 1,
									"numoutlets" : 2,
									"outlettype" : [ "", "FullPacket" ],
									"patching_rect" : [ 109.0, 329.0, 93.0, 22.0 ],
									"text" : "o.select /source"
								}

							}
, 							{
								"box" : 								{
									"comment" : "",
									"id" : "obj-8",
									"index" : 4,
									"maxclass" : "inlet",
									"numinlets" : 0,
									"numoutlets" : 1,
									"outlettype" : [ "" ],
									"patching_rect" : [ 378.0, 19.0, 30.0, 30.0 ]
								}

							}
, 							{
								"box" : 								{
									"comment" : "",
									"id" : "obj-7",
									"index" : 3,
									"maxclass" : "inlet",
									"numinlets" : 0,
									"numoutlets" : 1,
									"outlettype" : [ "" ],
									"patching_rect" : [ 292.0, 19.0, 30.0, 30.0 ]
								}

							}
, 							{
								"box" : 								{
									"comment" : "",
									"id" : "obj-6",
									"index" : 2,
									"maxclass" : "inlet",
									"numinlets" : 0,
									"numoutlets" : 1,
									"outlettype" : [ "" ],
									"patching_rect" : [ 213.0, 19.0, 30.0, 30.0 ]
								}

							}
, 							{
								"box" : 								{
									"comment" : "",
									"id" : "obj-5",
									"index" : 1,
									"maxclass" : "outlet",
									"numinlets" : 1,
									"numoutlets" : 0,
									"patching_rect" : [ 109.0, 367.0, 30.0, 30.0 ]
								}

							}
, 							{
								"box" : 								{
									"fontface" : 0,
									"id" : "obj-4",
									"linecount" : 9,
									"maxclass" : "o.expr.codebox",
									"numinlets" : 1,
									"numoutlets" : 2,
									"outlettype" : [ "FullPacket", "FullPacket" ],
									"patching_rect" : [ 109.0, 178.0, 282.0, 134.0 ],
									"text" : "/i ??=0, /s ??=1.0, /e ??= 0, /d ??= 1.0,\n/source/1/aed = [/i*/s, /e, /d],\n/source/2/aed = [/i*/s+45.0\t, /e, /d],\n/source/3/aed = [/i*/s+90., /e, /d],\n/source/4/aed = [/i*/s+135., /e, /d],\n/source/5/aed = [/i*/s+180., /e, /d],\n/source/6/aed = [/i*/s+225., /e, /d],\n/source/7/aed = [/i*/s+270., /e, /d],\n/source/8/aed = [/i*/s+315., /e, /d]"
								}

							}
, 							{
								"box" : 								{
									"id" : "obj-3",
									"maxclass" : "newobj",
									"numinlets" : 4,
									"numoutlets" : 1,
									"outlettype" : [ "FullPacket" ],
									"patching_rect" : [ 109.0, 154.0, 93.0, 22.0 ],
									"text" : "o.pack /i /s /e /d"
								}

							}
, 							{
								"box" : 								{
									"comment" : "",
									"id" : "obj-2",
									"index" : 1,
									"maxclass" : "inlet",
									"numinlets" : 0,
									"numoutlets" : 1,
									"outlettype" : [ "int" ],
									"patching_rect" : [ 108.75, 19.0, 30.0, 30.0 ]
								}

							}
, 							{
								"box" : 								{
									"id" : "obj-49",
									"maxclass" : "newobj",
									"numinlets" : 1,
									"numoutlets" : 2,
									"outlettype" : [ "int", "int" ],
									"patching_rect" : [ 109.0, 77.0, 29.5, 22.0 ],
									"text" : "t i 0"
								}

							}
, 							{
								"box" : 								{
									"id" : "obj-45",
									"maxclass" : "newobj",
									"numinlets" : 2,
									"numoutlets" : 1,
									"outlettype" : [ "bang" ],
									"patching_rect" : [ 109.0, 101.0, 56.0, 22.0 ],
									"text" : "metro 50"
								}

							}
, 							{
								"box" : 								{
									"id" : "obj-44",
									"maxclass" : "newobj",
									"numinlets" : 5,
									"numoutlets" : 4,
									"outlettype" : [ "int", "", "", "int" ],
									"patching_rect" : [ 109.0, 125.0, 61.0, 22.0 ],
									"text" : "counter"
								}

							}
 ],
						"lines" : [ 							{
								"patchline" : 								{
									"destination" : [ "obj-49", 0 ],
									"source" : [ "obj-2", 0 ]
								}

							}
, 							{
								"patchline" : 								{
									"destination" : [ "obj-4", 0 ],
									"source" : [ "obj-3", 0 ]
								}

							}
, 							{
								"patchline" : 								{
									"destination" : [ "obj-9", 0 ],
									"source" : [ "obj-4", 0 ]
								}

							}
, 							{
								"patchline" : 								{
									"destination" : [ "obj-3", 0 ],
									"source" : [ "obj-44", 0 ]
								}

							}
, 							{
								"patchline" : 								{
									"destination" : [ "obj-44", 0 ],
									"source" : [ "obj-45", 0 ]
								}

							}
, 							{
								"patchline" : 								{
									"destination" : [ "obj-44", 3 ],
									"source" : [ "obj-49", 1 ]
								}

							}
, 							{
								"patchline" : 								{
									"destination" : [ "obj-45", 0 ],
									"source" : [ "obj-49", 0 ]
								}

							}
, 							{
								"patchline" : 								{
									"destination" : [ "obj-3", 1 ],
									"source" : [ "obj-6", 0 ]
								}

							}
, 							{
								"patchline" : 								{
									"destination" : [ "obj-3", 2 ],
									"source" : [ "obj-7", 0 ]
								}

							}
, 							{
								"patchline" : 								{
									"destination" : [ "obj-3", 3 ],
									"source" : [ "obj-8", 0 ]
								}

							}
, 							{
								"patchline" : 								{
									"destination" : [ "obj-5", 0 ],
									"source" : [ "obj-9", 0 ]
								}

							}
 ],
						"originid" : "pat-12542"
					}
,
					"patching_rect" : [ 870.0, 785.0, 52.0, 22.0 ],
					"saved_object_attributes" : 					{
						"globalpatchername" : ""
					}
,
					"text" : "p march"
				}

			}
, 			{
				"box" : 				{
					"bubble" : 1,
					"id" : "obj-164",
					"maxclass" : "comment",
					"numinlets" : 1,
					"numoutlets" : 0,
					"patching_rect" : [ 615.0, 634.0, 161.0, 24.0 ],
					"text" : "Double Click to open GUI"
				}

			}
, 			{
				"box" : 				{
					"id" : "obj-162",
					"linecount" : 2,
					"maxclass" : "comment",
					"numinlets" : 1,
					"numoutlets" : 0,
					"patching_rect" : [ 18.0, 65.5, 492.0, 33.0 ],
					"presentation" : 1,
					"presentation_linecount" : 2,
					"presentation_rect" : [ 17.0, 55.5, 492.0, 33.0 ],
					"text" : "Load up some sound files and have fun.\nBe careful to avoid the \"Infinite\" button in the R1 tab (it can get extremely, damagingly loud)"
				}

			}
, 			{
				"box" : 				{
					"fontface" : 1,
					"fontsize" : 24.0,
					"id" : "obj-160",
					"maxclass" : "comment",
					"numinlets" : 1,
					"numoutlets" : 0,
					"patching_rect" : [ 18.0, 23.5, 661.0, 33.0 ],
					"presentation" : 1,
					"presentation_rect" : [ 17.0, 14.0, 661.0, 33.0 ],
					"text" : "Basic SPAT implementation for 8 sources and 8 speakers"
				}

			}
, 			{
				"box" : 				{
					"id" : "obj-158",
					"maxclass" : "newobj",
					"numinlets" : 1,
					"numoutlets" : 0,
					"patching_rect" : [ 18.0, 877.0, 54.0, 22.0 ],
					"text" : "mc.dac~"
				}

			}
, 			{
				"box" : 				{
					"hidden" : 1,
					"id" : "obj-157",
					"maxclass" : "newobj",
					"numinlets" : 1,
					"numoutlets" : 1,
					"outlettype" : [ "bang" ],
					"patching_rect" : [ 769.0, 555.5, 58.0, 22.0 ],
					"text" : "loadbang"
				}

			}
, 			{
				"box" : 				{
					"hidden" : 1,
					"id" : "obj-156",
					"linecount" : 2,
					"maxclass" : "message",
					"numinlets" : 2,
					"numoutlets" : 1,
					"outlettype" : [ "" ],
					"patching_rect" : [ 769.0, 579.5, 686.0, 35.0 ],
					"presentation_linecount" : 8,
					"text" : "/source/1/aed -34 0 4.22, /source/2/aed 0 0 3.46, /source/3/aed 36 0 4.07, /source/4/aed 89.25 0 2.47, /source/5/aed 138 0 3.4, /source/6/aed -177.5 0 3.72, /source/7/aed -131.5 0 3.59, /source/8/aed -87.5 0 2.73"
				}

			}
, 			{
				"box" : 				{
					"hidden" : 1,
					"id" : "obj-140",
					"maxclass" : "message",
					"numinlets" : 2,
					"numoutlets" : 1,
					"outlettype" : [ "" ],
					"patching_rect" : [ 2261.5, 145.0, 41.0, 22.0 ],
					"text" : "set $1"
				}

			}
, 			{
				"box" : 				{
					"hidden" : 1,
					"id" : "obj-141",
					"maxclass" : "message",
					"numinlets" : 2,
					"numoutlets" : 1,
					"outlettype" : [ "" ],
					"patching_rect" : [ 2218.5, 145.0, 41.0, 22.0 ],
					"text" : "set $1"
				}

			}
, 			{
				"box" : 				{
					"hidden" : 1,
					"id" : "obj-142",
					"maxclass" : "message",
					"numinlets" : 2,
					"numoutlets" : 1,
					"outlettype" : [ "" ],
					"patching_rect" : [ 2175.5, 145.0, 41.0, 22.0 ],
					"text" : "set $1"
				}

			}
, 			{
				"box" : 				{
					"hidden" : 1,
					"id" : "obj-143",
					"maxclass" : "newobj",
					"numinlets" : 1,
					"numoutlets" : 3,
					"outlettype" : [ "float", "float", "float" ],
					"patching_rect" : [ 2175.5, 110.0, 67.0, 22.0 ],
					"text" : "unpack f f f"
				}

			}
, 			{
				"box" : 				{
					"hidden" : 1,
					"id" : "obj-144",
					"maxclass" : "message",
					"numinlets" : 2,
					"numoutlets" : 1,
					"outlettype" : [ "" ],
					"patching_rect" : [ 2061.5, 145.0, 41.0, 22.0 ],
					"text" : "set $1"
				}

			}
, 			{
				"box" : 				{
					"hidden" : 1,
					"id" : "obj-145",
					"maxclass" : "message",
					"numinlets" : 2,
					"numoutlets" : 1,
					"outlettype" : [ "" ],
					"patching_rect" : [ 2018.5, 145.0, 41.0, 22.0 ],
					"text" : "set $1"
				}

			}
, 			{
				"box" : 				{
					"hidden" : 1,
					"id" : "obj-146",
					"maxclass" : "message",
					"numinlets" : 2,
					"numoutlets" : 1,
					"outlettype" : [ "" ],
					"patching_rect" : [ 1975.5, 145.0, 41.0, 22.0 ],
					"text" : "set $1"
				}

			}
, 			{
				"box" : 				{
					"hidden" : 1,
					"id" : "obj-147",
					"maxclass" : "newobj",
					"numinlets" : 1,
					"numoutlets" : 3,
					"outlettype" : [ "float", "float", "float" ],
					"patching_rect" : [ 1975.5, 110.0, 67.0, 22.0 ],
					"text" : "unpack f f f"
				}

			}
, 			{
				"box" : 				{
					"hidden" : 1,
					"id" : "obj-148",
					"maxclass" : "message",
					"numinlets" : 2,
					"numoutlets" : 1,
					"outlettype" : [ "" ],
					"patching_rect" : [ 1861.5, 145.0, 41.0, 22.0 ],
					"text" : "set $1"
				}

			}
, 			{
				"box" : 				{
					"hidden" : 1,
					"id" : "obj-149",
					"maxclass" : "message",
					"numinlets" : 2,
					"numoutlets" : 1,
					"outlettype" : [ "" ],
					"patching_rect" : [ 1818.5, 145.0, 41.0, 22.0 ],
					"text" : "set $1"
				}

			}
, 			{
				"box" : 				{
					"hidden" : 1,
					"id" : "obj-150",
					"maxclass" : "message",
					"numinlets" : 2,
					"numoutlets" : 1,
					"outlettype" : [ "" ],
					"patching_rect" : [ 1775.5, 145.0, 41.0, 22.0 ],
					"text" : "set $1"
				}

			}
, 			{
				"box" : 				{
					"hidden" : 1,
					"id" : "obj-151",
					"maxclass" : "newobj",
					"numinlets" : 1,
					"numoutlets" : 3,
					"outlettype" : [ "float", "float", "float" ],
					"patching_rect" : [ 1775.5, 110.0, 67.0, 22.0 ],
					"text" : "unpack f f f"
				}

			}
, 			{
				"box" : 				{
					"hidden" : 1,
					"id" : "obj-152",
					"maxclass" : "message",
					"numinlets" : 2,
					"numoutlets" : 1,
					"outlettype" : [ "" ],
					"patching_rect" : [ 1661.5, 145.0, 41.0, 22.0 ],
					"text" : "set $1"
				}

			}
, 			{
				"box" : 				{
					"hidden" : 1,
					"id" : "obj-153",
					"maxclass" : "message",
					"numinlets" : 2,
					"numoutlets" : 1,
					"outlettype" : [ "" ],
					"patching_rect" : [ 1618.5, 145.0, 41.0, 22.0 ],
					"text" : "set $1"
				}

			}
, 			{
				"box" : 				{
					"hidden" : 1,
					"id" : "obj-154",
					"maxclass" : "message",
					"numinlets" : 2,
					"numoutlets" : 1,
					"outlettype" : [ "" ],
					"patching_rect" : [ 1575.5, 145.0, 41.0, 22.0 ],
					"text" : "set $1"
				}

			}
, 			{
				"box" : 				{
					"hidden" : 1,
					"id" : "obj-155",
					"maxclass" : "newobj",
					"numinlets" : 1,
					"numoutlets" : 3,
					"outlettype" : [ "float", "float", "float" ],
					"patching_rect" : [ 1575.5, 110.0, 67.0, 22.0 ],
					"text" : "unpack f f f"
				}

			}
, 			{
				"box" : 				{
					"hidden" : 1,
					"id" : "obj-132",
					"maxclass" : "message",
					"numinlets" : 2,
					"numoutlets" : 1,
					"outlettype" : [ "" ],
					"patching_rect" : [ 1461.5, 145.0, 41.0, 22.0 ],
					"text" : "set $1"
				}

			}
, 			{
				"box" : 				{
					"hidden" : 1,
					"id" : "obj-133",
					"maxclass" : "message",
					"numinlets" : 2,
					"numoutlets" : 1,
					"outlettype" : [ "" ],
					"patching_rect" : [ 1418.5, 145.0, 41.0, 22.0 ],
					"text" : "set $1"
				}

			}
, 			{
				"box" : 				{
					"hidden" : 1,
					"id" : "obj-134",
					"maxclass" : "message",
					"numinlets" : 2,
					"numoutlets" : 1,
					"outlettype" : [ "" ],
					"patching_rect" : [ 1375.5, 145.0, 41.0, 22.0 ],
					"text" : "set $1"
				}

			}
, 			{
				"box" : 				{
					"hidden" : 1,
					"id" : "obj-135",
					"maxclass" : "newobj",
					"numinlets" : 1,
					"numoutlets" : 3,
					"outlettype" : [ "float", "float", "float" ],
					"patching_rect" : [ 1375.5, 110.0, 67.0, 22.0 ],
					"text" : "unpack f f f"
				}

			}
, 			{
				"box" : 				{
					"hidden" : 1,
					"id" : "obj-136",
					"maxclass" : "message",
					"numinlets" : 2,
					"numoutlets" : 1,
					"outlettype" : [ "" ],
					"patching_rect" : [ 1261.5, 145.0, 41.0, 22.0 ],
					"text" : "set $1"
				}

			}
, 			{
				"box" : 				{
					"hidden" : 1,
					"id" : "obj-137",
					"maxclass" : "message",
					"numinlets" : 2,
					"numoutlets" : 1,
					"outlettype" : [ "" ],
					"patching_rect" : [ 1218.5, 145.0, 41.0, 22.0 ],
					"text" : "set $1"
				}

			}
, 			{
				"box" : 				{
					"hidden" : 1,
					"id" : "obj-138",
					"maxclass" : "message",
					"numinlets" : 2,
					"numoutlets" : 1,
					"outlettype" : [ "" ],
					"patching_rect" : [ 1175.5, 145.0, 41.0, 22.0 ],
					"text" : "set $1"
				}

			}
, 			{
				"box" : 				{
					"hidden" : 1,
					"id" : "obj-139",
					"maxclass" : "newobj",
					"numinlets" : 1,
					"numoutlets" : 3,
					"outlettype" : [ "float", "float", "float" ],
					"patching_rect" : [ 1175.5, 110.0, 67.0, 22.0 ],
					"text" : "unpack f f f"
				}

			}
, 			{
				"box" : 				{
					"hidden" : 1,
					"id" : "obj-128",
					"maxclass" : "message",
					"numinlets" : 2,
					"numoutlets" : 1,
					"outlettype" : [ "" ],
					"patching_rect" : [ 1061.5, 145.0, 41.0, 22.0 ],
					"text" : "set $1"
				}

			}
, 			{
				"box" : 				{
					"hidden" : 1,
					"id" : "obj-129",
					"maxclass" : "message",
					"numinlets" : 2,
					"numoutlets" : 1,
					"outlettype" : [ "" ],
					"patching_rect" : [ 1018.5, 145.0, 41.0, 22.0 ],
					"text" : "set $1"
				}

			}
, 			{
				"box" : 				{
					"hidden" : 1,
					"id" : "obj-130",
					"maxclass" : "message",
					"numinlets" : 2,
					"numoutlets" : 1,
					"outlettype" : [ "" ],
					"patching_rect" : [ 975.5, 145.0, 41.0, 22.0 ],
					"text" : "set $1"
				}

			}
, 			{
				"box" : 				{
					"hidden" : 1,
					"id" : "obj-131",
					"maxclass" : "newobj",
					"numinlets" : 1,
					"numoutlets" : 3,
					"outlettype" : [ "float", "float", "float" ],
					"patching_rect" : [ 975.5, 110.0, 67.0, 22.0 ],
					"text" : "unpack f f f"
				}

			}
, 			{
				"box" : 				{
					"hidden" : 1,
					"id" : "obj-127",
					"maxclass" : "newobj",
					"numinlets" : 0,
					"numoutlets" : 1,
					"outlettype" : [ "" ],
					"patching_rect" : [ 774.5, 0.0, 81.0, 22.0 ],
					"text" : "r setPositions"
				}

			}
, 			{
				"box" : 				{
					"hidden" : 1,
					"id" : "obj-126",
					"maxclass" : "message",
					"numinlets" : 2,
					"numoutlets" : 1,
					"outlettype" : [ "" ],
					"patching_rect" : [ 861.5, 145.0, 41.0, 22.0 ],
					"text" : "set $1"
				}

			}
, 			{
				"box" : 				{
					"hidden" : 1,
					"id" : "obj-125",
					"maxclass" : "message",
					"numinlets" : 2,
					"numoutlets" : 1,
					"outlettype" : [ "" ],
					"patching_rect" : [ 818.5, 145.0, 41.0, 22.0 ],
					"text" : "set $1"
				}

			}
, 			{
				"box" : 				{
					"hidden" : 1,
					"id" : "obj-124",
					"maxclass" : "message",
					"numinlets" : 2,
					"numoutlets" : 1,
					"outlettype" : [ "" ],
					"patching_rect" : [ 775.5, 145.0, 41.0, 22.0 ],
					"text" : "set $1"
				}

			}
, 			{
				"box" : 				{
					"hidden" : 1,
					"id" : "obj-121",
					"maxclass" : "newobj",
					"numinlets" : 1,
					"numoutlets" : 0,
					"patching_rect" : [ 126.0, 663.0, 83.0, 22.0 ],
					"text" : "s setPositions"
				}

			}
, 			{
				"box" : 				{
					"hidden" : 1,
					"id" : "obj-120",
					"maxclass" : "newobj",
					"numinlets" : 1,
					"numoutlets" : 3,
					"outlettype" : [ "float", "float", "float" ],
					"patching_rect" : [ 775.5, 110.0, 67.0, 22.0 ],
					"text" : "unpack f f f"
				}

			}
, 			{
				"box" : 				{
					"hidden" : 1,
					"id" : "obj-119",
					"maxclass" : "newobj",
					"numinlets" : 1,
					"numoutlets" : 9,
					"outlettype" : [ "", "", "", "", "", "", "", "", "FullPacket" ],
					"patching_rect" : [ 775.5, 82.0, 1619.0, 22.0 ],
					"text" : "o.route /source/1/xyz /source/2/xyz /source/3/xyz /source/4/xyz /source/5/xyz /source/6/xyz /source/7/xyz /source/8/xyz"
				}

			}
, 			{
				"box" : 				{
					"hidden" : 1,
					"id" : "obj-116",
					"maxclass" : "newobj",
					"numinlets" : 1,
					"numoutlets" : 2,
					"outlettype" : [ "", "" ],
					"patching_rect" : [ 774.5, 56.0, 214.0, 22.0 ],
					"text" : "spat5.converter @initwith \"/format xyz\""
				}

			}
, 			{
				"box" : 				{
					"hidden" : 1,
					"id" : "obj-113",
					"maxclass" : "newobj",
					"numinlets" : 1,
					"numoutlets" : 2,
					"outlettype" : [ "", "FullPacket" ],
					"patching_rect" : [ 774.5, 29.0, 124.0, 22.0 ],
					"text" : "o.select /source/*/aed"
				}

			}
, 			{
				"box" : 				{
					"id" : "obj-108",
					"lastchannelcount" : 8,
					"maxclass" : "mc.live.gain~",
					"numinlets" : 1,
					"numoutlets" : 4,
					"outlettype" : [ "multichannelsignal", "", "float", "list" ],
					"parameter_enable" : 1,
					"patching_rect" : [ 18.0, 734.0, 179.0, 133.0 ],
					"saved_attribute_attributes" : 					{
						"valueof" : 						{
							"parameter_longname" : "mc.live.gain~",
							"parameter_mmax" : 6.0,
							"parameter_mmin" : -70.0,
							"parameter_modmode" : 3,
							"parameter_osc_name" : "<default>",
							"parameter_shortname" : "mc.live.gain~",
							"parameter_type" : 0,
							"parameter_unitstyle" : 4
						}

					}
,
					"varname" : "mc.live.gain~"
				}

			}
, 			{
				"box" : 				{
					"id" : "obj-105",
					"maxclass" : "newobj",
					"numinlets" : 1,
					"numoutlets" : 4,
					"outlettype" : [ "", "", "", "" ],
					"patching_rect" : [ 112.0, 635.0, 498.0, 22.0 ],
					"saved_object_attributes" : 					{
						"parameter_enable" : 0
					}
,
					"text" : "spat5.oper @initwith \"/source/number 8, /room/1/reverberance 22.7, /source/1/aperture 42, \""
				}

			}
, 			{
				"box" : 				{
					"id" : "obj-106",
					"maxclass" : "newobj",
					"numinlets" : 0,
					"numoutlets" : 1,
					"outlettype" : [ "" ],
					"patcher" : 					{
						"fileversion" : 1,
						"appversion" : 						{
							"major" : 9,
							"minor" : 0,
							"revision" : 2,
							"architecture" : "x64",
							"modernui" : 1
						}
,
						"classnamespace" : "box",
						"rect" : [ 199.0, 382.0, 1000.0, 780.0 ],
						"gridsize" : [ 15.0, 15.0 ],
						"boxes" : [ 							{
								"box" : 								{
									"id" : "obj-21",
									"linecount" : 3,
									"maxclass" : "comment",
									"numinlets" : 1,
									"numoutlets" : 0,
									"patching_rect" : [ 110.0, 81.0, 316.0, 47.0 ],
									"text" : "CNMAT Main Room Speaker Positions\nGiven in spherical coordinates\n(Azimuth, elevation, distance [degrees, degrees, meters] )"
								}

							}
, 							{
								"box" : 								{
									"id" : "obj-19",
									"maxclass" : "newobj",
									"numinlets" : 1,
									"numoutlets" : 1,
									"outlettype" : [ "bang" ],
									"patching_rect" : [ 50.0, 106.0, 58.0, 22.0 ],
									"text" : "loadbang"
								}

							}
, 							{
								"box" : 								{
									"id" : "obj-3",
									"linecount" : 10,
									"maxclass" : "message",
									"numinlets" : 2,
									"numoutlets" : 1,
									"outlettype" : [ "" ],
									"patching_rect" : [ 50.0, 130.0, 166.0, 143.0 ],
									"text" : "/speaker/number 8, /speaker/1/aed -34 0 4.22, /speaker/2/aed 0 0 3.46, /speaker/3/aed 36 0 4.07, /speaker/4/aed 89.25 0 2.47, /speaker/5/aed 138 0 3.4, /speaker/6/aed -177.5 0 3.72, /speaker/7/aed -131.5 0 3.59, /speaker/8/aed -87.5 0 2.73, /source/number 8"
								}

							}
, 							{
								"box" : 								{
									"comment" : "",
									"id" : "obj-20",
									"index" : 1,
									"maxclass" : "outlet",
									"numinlets" : 1,
									"numoutlets" : 0,
									"patching_rect" : [ 50.0, 438.0, 30.0, 30.0 ]
								}

							}
 ],
						"lines" : [ 							{
								"patchline" : 								{
									"destination" : [ "obj-3", 0 ],
									"source" : [ "obj-19", 0 ]
								}

							}
, 							{
								"patchline" : 								{
									"destination" : [ "obj-20", 0 ],
									"source" : [ "obj-3", 0 ]
								}

							}
 ],
						"originid" : "pat-11528"
					}
,
					"patching_rect" : [ 39.0, 586.0, 137.0, 22.0 ],
					"saved_object_attributes" : 					{
						"globalpatchername" : ""
					}
,
					"text" : "p init_speaker_positions"
				}

			}
, 			{
				"box" : 				{
					"id" : "obj-107",
					"maxclass" : "newobj",
					"numinlets" : 1,
					"numoutlets" : 2,
					"outlettype" : [ "multichannelsignal", "" ],
					"patching_rect" : [ 18.0, 704.0, 485.0, 22.0 ],
					"saved_object_attributes" : 					{
						"parameter_enable" : 0
					}
,
					"text" : "spat5.spat~ @inputs 8 @outputs 8 @internals 8 @mc 1 @initwith \"/panning/type angular\""
				}

			}
, 			{
				"box" : 				{
					"id" : "obj-72",
					"maxclass" : "comment",
					"numinlets" : 1,
					"numoutlets" : 0,
					"patching_rect" : [ 1663.0, 367.0, 19.0, 20.0 ],
					"text" : "z"
				}

			}
, 			{
				"box" : 				{
					"id" : "obj-73",
					"maxclass" : "comment",
					"numinlets" : 1,
					"numoutlets" : 0,
					"patching_rect" : [ 1611.0, 367.0, 19.0, 20.0 ],
					"text" : "y"
				}

			}
, 			{
				"box" : 				{
					"id" : "obj-74",
					"maxclass" : "comment",
					"numinlets" : 1,
					"numoutlets" : 0,
					"patching_rect" : [ 1565.0, 367.0, 19.0, 20.0 ],
					"text" : "x"
				}

			}
, 			{
				"box" : 				{
					"format" : 6,
					"id" : "obj-75",
					"maxclass" : "flonum",
					"numinlets" : 1,
					"numoutlets" : 2,
					"outlettype" : [ "", "bang" ],
					"parameter_enable" : 0,
					"patching_rect" : [ 1663.0, 395.0, 50.0, 22.0 ]
				}

			}
, 			{
				"box" : 				{
					"format" : 6,
					"id" : "obj-76",
					"maxclass" : "flonum",
					"numinlets" : 1,
					"numoutlets" : 2,
					"outlettype" : [ "", "bang" ],
					"parameter_enable" : 0,
					"patching_rect" : [ 1611.0, 395.0, 50.0, 22.0 ]
				}

			}
, 			{
				"box" : 				{
					"format" : 6,
					"id" : "obj-77",
					"maxclass" : "flonum",
					"numinlets" : 1,
					"numoutlets" : 2,
					"outlettype" : [ "", "bang" ],
					"parameter_enable" : 0,
					"patching_rect" : [ 1560.0, 395.0, 50.0, 22.0 ]
				}

			}
, 			{
				"box" : 				{
					"id" : "obj-78",
					"maxclass" : "newobj",
					"numinlets" : 3,
					"numoutlets" : 1,
					"outlettype" : [ "" ],
					"patching_rect" : [ 1560.0, 432.0, 48.0, 22.0 ],
					"text" : "pak f f f"
				}

			}
, 			{
				"box" : 				{
					"id" : "obj-79",
					"maxclass" : "newobj",
					"numinlets" : 1,
					"numoutlets" : 1,
					"outlettype" : [ "FullPacket" ],
					"patching_rect" : [ 1560.0, 456.0, 118.0, 22.0 ],
					"text" : "o.pack /source/8/xyz"
				}

			}
, 			{
				"box" : 				{
					"id" : "obj-80",
					"maxclass" : "comment",
					"numinlets" : 1,
					"numoutlets" : 0,
					"patching_rect" : [ 1451.0, 367.0, 19.0, 20.0 ],
					"text" : "z"
				}

			}
, 			{
				"box" : 				{
					"id" : "obj-81",
					"maxclass" : "comment",
					"numinlets" : 1,
					"numoutlets" : 0,
					"patching_rect" : [ 1399.0, 367.0, 19.0, 20.0 ],
					"text" : "y"
				}

			}
, 			{
				"box" : 				{
					"id" : "obj-82",
					"maxclass" : "comment",
					"numinlets" : 1,
					"numoutlets" : 0,
					"patching_rect" : [ 1353.0, 367.0, 19.0, 20.0 ],
					"text" : "x"
				}

			}
, 			{
				"box" : 				{
					"format" : 6,
					"id" : "obj-83",
					"maxclass" : "flonum",
					"numinlets" : 1,
					"numoutlets" : 2,
					"outlettype" : [ "", "bang" ],
					"parameter_enable" : 0,
					"patching_rect" : [ 1451.0, 395.0, 50.0, 22.0 ]
				}

			}
, 			{
				"box" : 				{
					"format" : 6,
					"id" : "obj-84",
					"maxclass" : "flonum",
					"numinlets" : 1,
					"numoutlets" : 2,
					"outlettype" : [ "", "bang" ],
					"parameter_enable" : 0,
					"patching_rect" : [ 1399.0, 395.0, 50.0, 22.0 ]
				}

			}
, 			{
				"box" : 				{
					"format" : 6,
					"id" : "obj-85",
					"maxclass" : "flonum",
					"numinlets" : 1,
					"numoutlets" : 2,
					"outlettype" : [ "", "bang" ],
					"parameter_enable" : 0,
					"patching_rect" : [ 1348.0, 395.0, 50.0, 22.0 ]
				}

			}
, 			{
				"box" : 				{
					"id" : "obj-86",
					"maxclass" : "newobj",
					"numinlets" : 3,
					"numoutlets" : 1,
					"outlettype" : [ "" ],
					"patching_rect" : [ 1348.0, 432.0, 48.0, 22.0 ],
					"text" : "pak f f f"
				}

			}
, 			{
				"box" : 				{
					"id" : "obj-87",
					"maxclass" : "newobj",
					"numinlets" : 1,
					"numoutlets" : 1,
					"outlettype" : [ "FullPacket" ],
					"patching_rect" : [ 1348.0, 456.0, 118.0, 22.0 ],
					"text" : "o.pack /source/7/xyz"
				}

			}
, 			{
				"box" : 				{
					"id" : "obj-88",
					"maxclass" : "comment",
					"numinlets" : 1,
					"numoutlets" : 0,
					"patching_rect" : [ 1239.0, 367.0, 19.0, 20.0 ],
					"text" : "z"
				}

			}
, 			{
				"box" : 				{
					"id" : "obj-89",
					"maxclass" : "comment",
					"numinlets" : 1,
					"numoutlets" : 0,
					"patching_rect" : [ 1187.0, 367.0, 19.0, 20.0 ],
					"text" : "y"
				}

			}
, 			{
				"box" : 				{
					"id" : "obj-90",
					"maxclass" : "comment",
					"numinlets" : 1,
					"numoutlets" : 0,
					"patching_rect" : [ 1141.0, 367.0, 19.0, 20.0 ],
					"text" : "x"
				}

			}
, 			{
				"box" : 				{
					"format" : 6,
					"id" : "obj-91",
					"maxclass" : "flonum",
					"numinlets" : 1,
					"numoutlets" : 2,
					"outlettype" : [ "", "bang" ],
					"parameter_enable" : 0,
					"patching_rect" : [ 1239.0, 395.0, 50.0, 22.0 ]
				}

			}
, 			{
				"box" : 				{
					"format" : 6,
					"id" : "obj-92",
					"maxclass" : "flonum",
					"numinlets" : 1,
					"numoutlets" : 2,
					"outlettype" : [ "", "bang" ],
					"parameter_enable" : 0,
					"patching_rect" : [ 1187.0, 395.0, 50.0, 22.0 ]
				}

			}
, 			{
				"box" : 				{
					"format" : 6,
					"id" : "obj-93",
					"maxclass" : "flonum",
					"numinlets" : 1,
					"numoutlets" : 2,
					"outlettype" : [ "", "bang" ],
					"parameter_enable" : 0,
					"patching_rect" : [ 1136.0, 395.0, 50.0, 22.0 ]
				}

			}
, 			{
				"box" : 				{
					"id" : "obj-94",
					"maxclass" : "newobj",
					"numinlets" : 3,
					"numoutlets" : 1,
					"outlettype" : [ "" ],
					"patching_rect" : [ 1136.0, 432.0, 48.0, 22.0 ],
					"text" : "pak f f f"
				}

			}
, 			{
				"box" : 				{
					"id" : "obj-95",
					"maxclass" : "newobj",
					"numinlets" : 1,
					"numoutlets" : 1,
					"outlettype" : [ "FullPacket" ],
					"patching_rect" : [ 1136.0, 456.0, 118.0, 22.0 ],
					"text" : "o.pack /source/6/xyz"
				}

			}
, 			{
				"box" : 				{
					"id" : "obj-96",
					"maxclass" : "comment",
					"numinlets" : 1,
					"numoutlets" : 0,
					"patching_rect" : [ 1027.0, 367.0, 19.0, 20.0 ],
					"text" : "z"
				}

			}
, 			{
				"box" : 				{
					"id" : "obj-97",
					"maxclass" : "comment",
					"numinlets" : 1,
					"numoutlets" : 0,
					"patching_rect" : [ 975.0, 367.0, 19.0, 20.0 ],
					"text" : "y"
				}

			}
, 			{
				"box" : 				{
					"id" : "obj-98",
					"maxclass" : "comment",
					"numinlets" : 1,
					"numoutlets" : 0,
					"patching_rect" : [ 929.0, 367.0, 19.0, 20.0 ],
					"text" : "x"
				}

			}
, 			{
				"box" : 				{
					"format" : 6,
					"id" : "obj-99",
					"maxclass" : "flonum",
					"numinlets" : 1,
					"numoutlets" : 2,
					"outlettype" : [ "", "bang" ],
					"parameter_enable" : 0,
					"patching_rect" : [ 1027.0, 395.0, 50.0, 22.0 ]
				}

			}
, 			{
				"box" : 				{
					"format" : 6,
					"id" : "obj-100",
					"maxclass" : "flonum",
					"numinlets" : 1,
					"numoutlets" : 2,
					"outlettype" : [ "", "bang" ],
					"parameter_enable" : 0,
					"patching_rect" : [ 975.0, 395.0, 50.0, 22.0 ]
				}

			}
, 			{
				"box" : 				{
					"format" : 6,
					"id" : "obj-101",
					"maxclass" : "flonum",
					"numinlets" : 1,
					"numoutlets" : 2,
					"outlettype" : [ "", "bang" ],
					"parameter_enable" : 0,
					"patching_rect" : [ 924.0, 395.0, 50.0, 22.0 ]
				}

			}
, 			{
				"box" : 				{
					"id" : "obj-102",
					"maxclass" : "newobj",
					"numinlets" : 3,
					"numoutlets" : 1,
					"outlettype" : [ "" ],
					"patching_rect" : [ 924.0, 432.0, 48.0, 22.0 ],
					"text" : "pak f f f"
				}

			}
, 			{
				"box" : 				{
					"id" : "obj-103",
					"maxclass" : "newobj",
					"numinlets" : 1,
					"numoutlets" : 1,
					"outlettype" : [ "FullPacket" ],
					"patching_rect" : [ 924.0, 456.0, 118.0, 22.0 ],
					"text" : "o.pack /source/5/xyz"
				}

			}
, 			{
				"box" : 				{
					"id" : "obj-56",
					"maxclass" : "comment",
					"numinlets" : 1,
					"numoutlets" : 0,
					"patching_rect" : [ 814.0, 367.0, 19.0, 20.0 ],
					"text" : "z"
				}

			}
, 			{
				"box" : 				{
					"id" : "obj-57",
					"maxclass" : "comment",
					"numinlets" : 1,
					"numoutlets" : 0,
					"patching_rect" : [ 762.0, 367.0, 19.0, 20.0 ],
					"text" : "y"
				}

			}
, 			{
				"box" : 				{
					"id" : "obj-58",
					"maxclass" : "comment",
					"numinlets" : 1,
					"numoutlets" : 0,
					"patching_rect" : [ 716.0, 367.0, 19.0, 20.0 ],
					"text" : "x"
				}

			}
, 			{
				"box" : 				{
					"format" : 6,
					"id" : "obj-59",
					"maxclass" : "flonum",
					"numinlets" : 1,
					"numoutlets" : 2,
					"outlettype" : [ "", "bang" ],
					"parameter_enable" : 0,
					"patching_rect" : [ 814.0, 395.0, 50.0, 22.0 ]
				}

			}
, 			{
				"box" : 				{
					"format" : 6,
					"id" : "obj-60",
					"maxclass" : "flonum",
					"numinlets" : 1,
					"numoutlets" : 2,
					"outlettype" : [ "", "bang" ],
					"parameter_enable" : 0,
					"patching_rect" : [ 762.0, 395.0, 50.0, 22.0 ]
				}

			}
, 			{
				"box" : 				{
					"format" : 6,
					"id" : "obj-61",
					"maxclass" : "flonum",
					"numinlets" : 1,
					"numoutlets" : 2,
					"outlettype" : [ "", "bang" ],
					"parameter_enable" : 0,
					"patching_rect" : [ 711.0, 395.0, 50.0, 22.0 ]
				}

			}
, 			{
				"box" : 				{
					"id" : "obj-62",
					"maxclass" : "newobj",
					"numinlets" : 3,
					"numoutlets" : 1,
					"outlettype" : [ "" ],
					"patching_rect" : [ 711.0, 432.0, 48.0, 22.0 ],
					"text" : "pak f f f"
				}

			}
, 			{
				"box" : 				{
					"id" : "obj-63",
					"maxclass" : "newobj",
					"numinlets" : 1,
					"numoutlets" : 1,
					"outlettype" : [ "FullPacket" ],
					"patching_rect" : [ 711.0, 456.0, 118.0, 22.0 ],
					"text" : "o.pack /source/4/xyz"
				}

			}
, 			{
				"box" : 				{
					"id" : "obj-64",
					"maxclass" : "comment",
					"numinlets" : 1,
					"numoutlets" : 0,
					"patching_rect" : [ 602.0, 367.0, 19.0, 20.0 ],
					"text" : "z"
				}

			}
, 			{
				"box" : 				{
					"id" : "obj-65",
					"maxclass" : "comment",
					"numinlets" : 1,
					"numoutlets" : 0,
					"patching_rect" : [ 550.0, 367.0, 19.0, 20.0 ],
					"text" : "y"
				}

			}
, 			{
				"box" : 				{
					"id" : "obj-66",
					"maxclass" : "comment",
					"numinlets" : 1,
					"numoutlets" : 0,
					"patching_rect" : [ 504.0, 367.0, 19.0, 20.0 ],
					"text" : "x"
				}

			}
, 			{
				"box" : 				{
					"format" : 6,
					"id" : "obj-67",
					"maxclass" : "flonum",
					"numinlets" : 1,
					"numoutlets" : 2,
					"outlettype" : [ "", "bang" ],
					"parameter_enable" : 0,
					"patching_rect" : [ 602.0, 395.0, 50.0, 22.0 ]
				}

			}
, 			{
				"box" : 				{
					"format" : 6,
					"id" : "obj-68",
					"maxclass" : "flonum",
					"numinlets" : 1,
					"numoutlets" : 2,
					"outlettype" : [ "", "bang" ],
					"parameter_enable" : 0,
					"patching_rect" : [ 550.0, 395.0, 50.0, 22.0 ]
				}

			}
, 			{
				"box" : 				{
					"format" : 6,
					"id" : "obj-69",
					"maxclass" : "flonum",
					"numinlets" : 1,
					"numoutlets" : 2,
					"outlettype" : [ "", "bang" ],
					"parameter_enable" : 0,
					"patching_rect" : [ 499.0, 395.0, 50.0, 22.0 ]
				}

			}
, 			{
				"box" : 				{
					"id" : "obj-70",
					"maxclass" : "newobj",
					"numinlets" : 3,
					"numoutlets" : 1,
					"outlettype" : [ "" ],
					"patching_rect" : [ 499.0, 432.0, 48.0, 22.0 ],
					"text" : "pak f f f"
				}

			}
, 			{
				"box" : 				{
					"id" : "obj-71",
					"maxclass" : "newobj",
					"numinlets" : 1,
					"numoutlets" : 1,
					"outlettype" : [ "FullPacket" ],
					"patching_rect" : [ 499.0, 456.0, 118.0, 22.0 ],
					"text" : "o.pack /source/3/xyz"
				}

			}
, 			{
				"box" : 				{
					"id" : "obj-40",
					"maxclass" : "comment",
					"numinlets" : 1,
					"numoutlets" : 0,
					"patching_rect" : [ 390.0, 367.0, 19.0, 20.0 ],
					"text" : "z"
				}

			}
, 			{
				"box" : 				{
					"id" : "obj-41",
					"maxclass" : "comment",
					"numinlets" : 1,
					"numoutlets" : 0,
					"patching_rect" : [ 338.0, 367.0, 19.0, 20.0 ],
					"text" : "y"
				}

			}
, 			{
				"box" : 				{
					"id" : "obj-42",
					"maxclass" : "comment",
					"numinlets" : 1,
					"numoutlets" : 0,
					"patching_rect" : [ 292.0, 367.0, 19.0, 20.0 ],
					"text" : "x"
				}

			}
, 			{
				"box" : 				{
					"format" : 6,
					"id" : "obj-43",
					"maxclass" : "flonum",
					"numinlets" : 1,
					"numoutlets" : 2,
					"outlettype" : [ "", "bang" ],
					"parameter_enable" : 0,
					"patching_rect" : [ 390.0, 395.0, 50.0, 22.0 ]
				}

			}
, 			{
				"box" : 				{
					"format" : 6,
					"id" : "obj-44",
					"maxclass" : "flonum",
					"numinlets" : 1,
					"numoutlets" : 2,
					"outlettype" : [ "", "bang" ],
					"parameter_enable" : 0,
					"patching_rect" : [ 338.0, 395.0, 50.0, 22.0 ]
				}

			}
, 			{
				"box" : 				{
					"format" : 6,
					"id" : "obj-45",
					"maxclass" : "flonum",
					"numinlets" : 1,
					"numoutlets" : 2,
					"outlettype" : [ "", "bang" ],
					"parameter_enable" : 0,
					"patching_rect" : [ 287.0, 395.0, 50.0, 22.0 ]
				}

			}
, 			{
				"box" : 				{
					"id" : "obj-46",
					"maxclass" : "newobj",
					"numinlets" : 3,
					"numoutlets" : 1,
					"outlettype" : [ "" ],
					"patching_rect" : [ 287.0, 432.0, 48.0, 22.0 ],
					"text" : "pak f f f"
				}

			}
, 			{
				"box" : 				{
					"id" : "obj-47",
					"maxclass" : "newobj",
					"numinlets" : 1,
					"numoutlets" : 1,
					"outlettype" : [ "FullPacket" ],
					"patching_rect" : [ 287.0, 456.0, 118.0, 22.0 ],
					"text" : "o.pack /source/2/xyz"
				}

			}
, 			{
				"box" : 				{
					"id" : "obj-38",
					"maxclass" : "comment",
					"numinlets" : 1,
					"numoutlets" : 0,
					"patching_rect" : [ 178.0, 367.0, 19.0, 20.0 ],
					"text" : "z"
				}

			}
, 			{
				"box" : 				{
					"id" : "obj-37",
					"maxclass" : "comment",
					"numinlets" : 1,
					"numoutlets" : 0,
					"patching_rect" : [ 126.0, 367.0, 19.0, 20.0 ],
					"text" : "y"
				}

			}
, 			{
				"box" : 				{
					"id" : "obj-36",
					"maxclass" : "comment",
					"numinlets" : 1,
					"numoutlets" : 0,
					"patching_rect" : [ 80.0, 367.0, 19.0, 20.0 ],
					"text" : "x"
				}

			}
, 			{
				"box" : 				{
					"format" : 6,
					"id" : "obj-34",
					"maxclass" : "flonum",
					"numinlets" : 1,
					"numoutlets" : 2,
					"outlettype" : [ "", "bang" ],
					"parameter_enable" : 0,
					"patching_rect" : [ 178.0, 395.0, 50.0, 22.0 ]
				}

			}
, 			{
				"box" : 				{
					"format" : 6,
					"id" : "obj-32",
					"maxclass" : "flonum",
					"numinlets" : 1,
					"numoutlets" : 2,
					"outlettype" : [ "", "bang" ],
					"parameter_enable" : 0,
					"patching_rect" : [ 126.0, 395.0, 50.0, 22.0 ]
				}

			}
, 			{
				"box" : 				{
					"format" : 6,
					"id" : "obj-30",
					"maxclass" : "flonum",
					"numinlets" : 1,
					"numoutlets" : 2,
					"outlettype" : [ "", "bang" ],
					"parameter_enable" : 0,
					"patching_rect" : [ 75.0, 395.0, 50.0, 22.0 ]
				}

			}
, 			{
				"box" : 				{
					"id" : "obj-28",
					"maxclass" : "newobj",
					"numinlets" : 3,
					"numoutlets" : 1,
					"outlettype" : [ "" ],
					"patching_rect" : [ 75.0, 432.0, 48.0, 22.0 ],
					"text" : "pak f f f"
				}

			}
, 			{
				"box" : 				{
					"id" : "obj-26",
					"maxclass" : "newobj",
					"numinlets" : 1,
					"numoutlets" : 1,
					"outlettype" : [ "FullPacket" ],
					"patching_rect" : [ 75.0, 456.0, 118.0, 22.0 ],
					"text" : "o.pack /source/1/xyz"
				}

			}
, 			{
				"box" : 				{
					"hidden" : 1,
					"id" : "obj-8",
					"maxclass" : "newobj",
					"numinlets" : 1,
					"numoutlets" : 1,
					"outlettype" : [ "bang" ],
					"patching_rect" : [ 1503.0, 182.0, 58.0, 22.0 ],
					"text" : "loadbang"
				}

			}
, 			{
				"box" : 				{
					"hidden" : 1,
					"id" : "obj-9",
					"maxclass" : "message",
					"numinlets" : 2,
					"numoutlets" : 1,
					"outlettype" : [ "" ],
					"patching_rect" : [ 1503.0, 212.0, 192.0, 22.0 ],
					"text" : "/title \"source 8\", /gain -30, /mode 3"
				}

			}
, 			{
				"box" : 				{
					"bgmode" : 0,
					"border" : 0,
					"clickthrough" : 0,
					"enablehscroll" : 0,
					"enablevscroll" : 0,
					"id" : "obj-10",
					"lockeddragscroll" : 0,
					"lockedsize" : 0,
					"maxclass" : "bpatcher",
					"name" : "spat5.input~.maxpat",
					"numinlets" : 1,
					"numoutlets" : 1,
					"offset" : [ 0.0, 0.0 ],
					"outlettype" : [ "signal" ],
					"patching_rect" : [ 1503.0, 242.0, 210.0, 121.0 ],
					"viewvisibility" : 1
				}

			}
, 			{
				"box" : 				{
					"hidden" : 1,
					"id" : "obj-11",
					"maxclass" : "newobj",
					"numinlets" : 1,
					"numoutlets" : 1,
					"outlettype" : [ "bang" ],
					"patching_rect" : [ 1291.0, 182.0, 58.0, 22.0 ],
					"text" : "loadbang"
				}

			}
, 			{
				"box" : 				{
					"hidden" : 1,
					"id" : "obj-12",
					"maxclass" : "message",
					"numinlets" : 2,
					"numoutlets" : 1,
					"outlettype" : [ "" ],
					"patching_rect" : [ 1291.0, 212.0, 192.0, 22.0 ],
					"text" : "/title \"source 7\", /gain -30, /mode 3"
				}

			}
, 			{
				"box" : 				{
					"bgmode" : 0,
					"border" : 0,
					"clickthrough" : 0,
					"enablehscroll" : 0,
					"enablevscroll" : 0,
					"id" : "obj-13",
					"lockeddragscroll" : 0,
					"lockedsize" : 0,
					"maxclass" : "bpatcher",
					"name" : "spat5.input~.maxpat",
					"numinlets" : 1,
					"numoutlets" : 1,
					"offset" : [ 0.0, 0.0 ],
					"outlettype" : [ "signal" ],
					"patching_rect" : [ 1291.0, 242.0, 210.0, 121.0 ],
					"viewvisibility" : 1
				}

			}
, 			{
				"box" : 				{
					"hidden" : 1,
					"id" : "obj-14",
					"maxclass" : "newobj",
					"numinlets" : 1,
					"numoutlets" : 1,
					"outlettype" : [ "bang" ],
					"patching_rect" : [ 1079.0, 182.0, 58.0, 22.0 ],
					"text" : "loadbang"
				}

			}
, 			{
				"box" : 				{
					"hidden" : 1,
					"id" : "obj-19",
					"maxclass" : "message",
					"numinlets" : 2,
					"numoutlets" : 1,
					"outlettype" : [ "" ],
					"patching_rect" : [ 1079.0, 212.0, 192.0, 22.0 ],
					"text" : "/title \"source 6\", /gain -30, /mode 3"
				}

			}
, 			{
				"box" : 				{
					"bgmode" : 0,
					"border" : 0,
					"clickthrough" : 0,
					"enablehscroll" : 0,
					"enablevscroll" : 0,
					"id" : "obj-20",
					"lockeddragscroll" : 0,
					"lockedsize" : 0,
					"maxclass" : "bpatcher",
					"name" : "spat5.input~.maxpat",
					"numinlets" : 1,
					"numoutlets" : 1,
					"offset" : [ 0.0, 0.0 ],
					"outlettype" : [ "signal" ],
					"patching_rect" : [ 1079.0, 242.0, 210.0, 121.0 ],
					"viewvisibility" : 1
				}

			}
, 			{
				"box" : 				{
					"hidden" : 1,
					"id" : "obj-21",
					"maxclass" : "newobj",
					"numinlets" : 1,
					"numoutlets" : 1,
					"outlettype" : [ "bang" ],
					"patching_rect" : [ 867.0, 182.0, 58.0, 22.0 ],
					"text" : "loadbang"
				}

			}
, 			{
				"box" : 				{
					"hidden" : 1,
					"id" : "obj-24",
					"maxclass" : "message",
					"numinlets" : 2,
					"numoutlets" : 1,
					"outlettype" : [ "" ],
					"patching_rect" : [ 867.0, 212.0, 192.0, 22.0 ],
					"text" : "/title \"source 5\", /gain -30, /mode 3"
				}

			}
, 			{
				"box" : 				{
					"bgmode" : 0,
					"border" : 0,
					"clickthrough" : 0,
					"enablehscroll" : 0,
					"enablevscroll" : 0,
					"id" : "obj-25",
					"lockeddragscroll" : 0,
					"lockedsize" : 0,
					"maxclass" : "bpatcher",
					"name" : "spat5.input~.maxpat",
					"numinlets" : 1,
					"numoutlets" : 1,
					"offset" : [ 0.0, 0.0 ],
					"outlettype" : [ "signal" ],
					"patching_rect" : [ 867.0, 242.0, 210.0, 121.0 ],
					"viewvisibility" : 1
				}

			}
, 			{
				"box" : 				{
					"hidden" : 1,
					"id" : "obj-1",
					"maxclass" : "newobj",
					"numinlets" : 1,
					"numoutlets" : 1,
					"outlettype" : [ "bang" ],
					"patching_rect" : [ 654.0, 182.0, 58.0, 22.0 ],
					"text" : "loadbang"
				}

			}
, 			{
				"box" : 				{
					"hidden" : 1,
					"id" : "obj-2",
					"maxclass" : "message",
					"numinlets" : 2,
					"numoutlets" : 1,
					"outlettype" : [ "" ],
					"patching_rect" : [ 654.0, 212.0, 192.0, 22.0 ],
					"text" : "/title \"source 4\", /gain -30, /mode 3"
				}

			}
, 			{
				"box" : 				{
					"bgmode" : 0,
					"border" : 0,
					"clickthrough" : 0,
					"enablehscroll" : 0,
					"enablevscroll" : 0,
					"id" : "obj-3",
					"lockeddragscroll" : 0,
					"lockedsize" : 0,
					"maxclass" : "bpatcher",
					"name" : "spat5.input~.maxpat",
					"numinlets" : 1,
					"numoutlets" : 1,
					"offset" : [ 0.0, 0.0 ],
					"outlettype" : [ "signal" ],
					"patching_rect" : [ 654.0, 242.0, 210.0, 121.0 ],
					"viewvisibility" : 1
				}

			}
, 			{
				"box" : 				{
					"hidden" : 1,
					"id" : "obj-5",
					"maxclass" : "newobj",
					"numinlets" : 1,
					"numoutlets" : 1,
					"outlettype" : [ "bang" ],
					"patching_rect" : [ 442.0, 182.0, 58.0, 22.0 ],
					"text" : "loadbang"
				}

			}
, 			{
				"box" : 				{
					"hidden" : 1,
					"id" : "obj-6",
					"maxclass" : "message",
					"numinlets" : 2,
					"numoutlets" : 1,
					"outlettype" : [ "" ],
					"patching_rect" : [ 442.0, 212.0, 192.0, 22.0 ],
					"text" : "/title \"source 3\", /gain -30, /mode 3"
				}

			}
, 			{
				"box" : 				{
					"bgmode" : 0,
					"border" : 0,
					"clickthrough" : 0,
					"enablehscroll" : 0,
					"enablevscroll" : 0,
					"id" : "obj-7",
					"lockeddragscroll" : 0,
					"lockedsize" : 0,
					"maxclass" : "bpatcher",
					"name" : "spat5.input~.maxpat",
					"numinlets" : 1,
					"numoutlets" : 1,
					"offset" : [ 0.0, 0.0 ],
					"outlettype" : [ "signal" ],
					"patching_rect" : [ 442.0, 242.0, 210.0, 121.0 ],
					"viewvisibility" : 1
				}

			}
, 			{
				"box" : 				{
					"id" : "obj-4",
					"maxclass" : "newobj",
					"numinlets" : 8,
					"numoutlets" : 1,
					"outlettype" : [ "multichannelsignal" ],
					"patching_rect" : [ 18.0, 490.0, 1504.0, 22.0 ],
					"text" : "mc.pack~ 8"
				}

			}
, 			{
				"box" : 				{
					"hidden" : 1,
					"id" : "obj-15",
					"maxclass" : "newobj",
					"numinlets" : 1,
					"numoutlets" : 1,
					"outlettype" : [ "bang" ],
					"patching_rect" : [ 230.0, 182.0, 58.0, 22.0 ],
					"text" : "loadbang"
				}

			}
, 			{
				"box" : 				{
					"hidden" : 1,
					"id" : "obj-16",
					"maxclass" : "message",
					"numinlets" : 2,
					"numoutlets" : 1,
					"outlettype" : [ "" ],
					"patching_rect" : [ 230.0, 212.0, 192.0, 22.0 ],
					"text" : "/title \"source 2\", /gain -30, /mode 3"
				}

			}
, 			{
				"box" : 				{
					"bgmode" : 0,
					"border" : 0,
					"clickthrough" : 0,
					"enablehscroll" : 0,
					"enablevscroll" : 0,
					"id" : "obj-18",
					"lockeddragscroll" : 0,
					"lockedsize" : 0,
					"maxclass" : "bpatcher",
					"name" : "spat5.input~.maxpat",
					"numinlets" : 1,
					"numoutlets" : 1,
					"offset" : [ 0.0, 0.0 ],
					"outlettype" : [ "signal" ],
					"patching_rect" : [ 230.0, 242.0, 210.0, 121.0 ],
					"viewvisibility" : 1
				}

			}
, 			{
				"box" : 				{
					"hidden" : 1,
					"id" : "obj-23",
					"maxclass" : "newobj",
					"numinlets" : 1,
					"numoutlets" : 1,
					"outlettype" : [ "bang" ],
					"patching_rect" : [ 18.0, 182.0, 58.0, 22.0 ],
					"text" : "loadbang"
				}

			}
, 			{
				"box" : 				{
					"hidden" : 1,
					"id" : "obj-22",
					"maxclass" : "message",
					"numinlets" : 2,
					"numoutlets" : 1,
					"outlettype" : [ "" ],
					"patching_rect" : [ 18.0, 212.0, 192.0, 22.0 ],
					"text" : "/title \"source 1\", /gain -30, /mode 3"
				}

			}
, 			{
				"box" : 				{
					"bgmode" : 0,
					"border" : 0,
					"clickthrough" : 0,
					"enablehscroll" : 0,
					"enablevscroll" : 0,
					"id" : "obj-17",
					"lockeddragscroll" : 0,
					"lockedsize" : 0,
					"maxclass" : "bpatcher",
					"name" : "spat5.input~.maxpat",
					"numinlets" : 1,
					"numoutlets" : 1,
					"offset" : [ 0.0, 0.0 ],
					"outlettype" : [ "signal" ],
					"patching_rect" : [ 18.0, 242.0, 210.0, 121.0 ],
					"viewvisibility" : 1
				}

			}
 ],
		"lines" : [ 			{
				"patchline" : 				{
					"destination" : [ "obj-2", 0 ],
					"hidden" : 1,
					"source" : [ "obj-1", 0 ]
				}

			}
, 			{
				"patchline" : 				{
					"destination" : [ "obj-4", 7 ],
					"source" : [ "obj-10", 0 ]
				}

			}
, 			{
				"patchline" : 				{
					"destination" : [ "obj-102", 1 ],
					"source" : [ "obj-100", 0 ]
				}

			}
, 			{
				"patchline" : 				{
					"destination" : [ "obj-102", 0 ],
					"source" : [ "obj-101", 0 ]
				}

			}
, 			{
				"patchline" : 				{
					"destination" : [ "obj-103", 0 ],
					"source" : [ "obj-102", 0 ]
				}

			}
, 			{
				"patchline" : 				{
					"destination" : [ "obj-105", 0 ],
					"midpoints" : [ 933.5, 556.5, 121.5, 556.5 ],
					"source" : [ "obj-103", 0 ]
				}

			}
, 			{
				"patchline" : 				{
					"destination" : [ "obj-107", 0 ],
					"midpoints" : [ 121.5, 697.33203125, 27.5, 697.33203125 ],
					"order" : 1,
					"source" : [ "obj-105", 0 ]
				}

			}
, 			{
				"patchline" : 				{
					"destination" : [ "obj-121", 0 ],
					"hidden" : 1,
					"order" : 0,
					"source" : [ "obj-105", 0 ]
				}

			}
, 			{
				"patchline" : 				{
					"destination" : [ "obj-105", 0 ],
					"midpoints" : [ 48.5, 614.171875, 121.5, 614.171875 ],
					"order" : 0,
					"source" : [ "obj-106", 0 ]
				}

			}
, 			{
				"patchline" : 				{
					"destination" : [ "obj-107", 0 ],
					"midpoints" : [ 48.5, 694.21875, 27.5, 694.21875 ],
					"order" : 1,
					"source" : [ "obj-106", 0 ]
				}

			}
, 			{
				"patchline" : 				{
					"destination" : [ "obj-108", 0 ],
					"source" : [ "obj-107", 0 ]
				}

			}
, 			{
				"patchline" : 				{
					"destination" : [ "obj-158", 0 ],
					"source" : [ "obj-108", 0 ]
				}

			}
, 			{
				"patchline" : 				{
					"destination" : [ "obj-12", 0 ],
					"hidden" : 1,
					"source" : [ "obj-11", 0 ]
				}

			}
, 			{
				"patchline" : 				{
					"destination" : [ "obj-116", 0 ],
					"hidden" : 1,
					"source" : [ "obj-113", 0 ]
				}

			}
, 			{
				"patchline" : 				{
					"destination" : [ "obj-119", 0 ],
					"hidden" : 1,
					"source" : [ "obj-116", 0 ]
				}

			}
, 			{
				"patchline" : 				{
					"destination" : [ "obj-120", 0 ],
					"hidden" : 1,
					"source" : [ "obj-119", 0 ]
				}

			}
, 			{
				"patchline" : 				{
					"destination" : [ "obj-131", 0 ],
					"hidden" : 1,
					"source" : [ "obj-119", 1 ]
				}

			}
, 			{
				"patchline" : 				{
					"destination" : [ "obj-135", 0 ],
					"hidden" : 1,
					"source" : [ "obj-119", 3 ]
				}

			}
, 			{
				"patchline" : 				{
					"destination" : [ "obj-139", 0 ],
					"hidden" : 1,
					"source" : [ "obj-119", 2 ]
				}

			}
, 			{
				"patchline" : 				{
					"destination" : [ "obj-143", 0 ],
					"hidden" : 1,
					"source" : [ "obj-119", 7 ]
				}

			}
, 			{
				"patchline" : 				{
					"destination" : [ "obj-147", 0 ],
					"hidden" : 1,
					"source" : [ "obj-119", 6 ]
				}

			}
, 			{
				"patchline" : 				{
					"destination" : [ "obj-151", 0 ],
					"hidden" : 1,
					"source" : [ "obj-119", 5 ]
				}

			}
, 			{
				"patchline" : 				{
					"destination" : [ "obj-155", 0 ],
					"hidden" : 1,
					"source" : [ "obj-119", 4 ]
				}

			}
, 			{
				"patchline" : 				{
					"destination" : [ "obj-13", 0 ],
					"hidden" : 1,
					"source" : [ "obj-12", 0 ]
				}

			}
, 			{
				"patchline" : 				{
					"destination" : [ "obj-124", 0 ],
					"hidden" : 1,
					"source" : [ "obj-120", 0 ]
				}

			}
, 			{
				"patchline" : 				{
					"destination" : [ "obj-125", 0 ],
					"hidden" : 1,
					"source" : [ "obj-120", 1 ]
				}

			}
, 			{
				"patchline" : 				{
					"destination" : [ "obj-126", 0 ],
					"hidden" : 1,
					"source" : [ "obj-120", 2 ]
				}

			}
, 			{
				"patchline" : 				{
					"destination" : [ "obj-30", 0 ],
					"hidden" : 1,
					"source" : [ "obj-124", 0 ]
				}

			}
, 			{
				"patchline" : 				{
					"destination" : [ "obj-32", 0 ],
					"hidden" : 1,
					"source" : [ "obj-125", 0 ]
				}

			}
, 			{
				"patchline" : 				{
					"destination" : [ "obj-34", 0 ],
					"hidden" : 1,
					"source" : [ "obj-126", 0 ]
				}

			}
, 			{
				"patchline" : 				{
					"destination" : [ "obj-113", 0 ],
					"hidden" : 1,
					"source" : [ "obj-127", 0 ]
				}

			}
, 			{
				"patchline" : 				{
					"destination" : [ "obj-43", 0 ],
					"hidden" : 1,
					"source" : [ "obj-128", 0 ]
				}

			}
, 			{
				"patchline" : 				{
					"destination" : [ "obj-44", 0 ],
					"hidden" : 1,
					"source" : [ "obj-129", 0 ]
				}

			}
, 			{
				"patchline" : 				{
					"destination" : [ "obj-4", 6 ],
					"source" : [ "obj-13", 0 ]
				}

			}
, 			{
				"patchline" : 				{
					"destination" : [ "obj-45", 0 ],
					"hidden" : 1,
					"source" : [ "obj-130", 0 ]
				}

			}
, 			{
				"patchline" : 				{
					"destination" : [ "obj-128", 0 ],
					"hidden" : 1,
					"source" : [ "obj-131", 2 ]
				}

			}
, 			{
				"patchline" : 				{
					"destination" : [ "obj-129", 0 ],
					"hidden" : 1,
					"source" : [ "obj-131", 1 ]
				}

			}
, 			{
				"patchline" : 				{
					"destination" : [ "obj-130", 0 ],
					"hidden" : 1,
					"source" : [ "obj-131", 0 ]
				}

			}
, 			{
				"patchline" : 				{
					"destination" : [ "obj-59", 0 ],
					"hidden" : 1,
					"source" : [ "obj-132", 0 ]
				}

			}
, 			{
				"patchline" : 				{
					"destination" : [ "obj-60", 0 ],
					"hidden" : 1,
					"source" : [ "obj-133", 0 ]
				}

			}
, 			{
				"patchline" : 				{
					"destination" : [ "obj-61", 0 ],
					"hidden" : 1,
					"source" : [ "obj-134", 0 ]
				}

			}
, 			{
				"patchline" : 				{
					"destination" : [ "obj-132", 0 ],
					"hidden" : 1,
					"source" : [ "obj-135", 2 ]
				}

			}
, 			{
				"patchline" : 				{
					"destination" : [ "obj-133", 0 ],
					"hidden" : 1,
					"source" : [ "obj-135", 1 ]
				}

			}
, 			{
				"patchline" : 				{
					"destination" : [ "obj-134", 0 ],
					"hidden" : 1,
					"source" : [ "obj-135", 0 ]
				}

			}
, 			{
				"patchline" : 				{
					"destination" : [ "obj-67", 0 ],
					"hidden" : 1,
					"source" : [ "obj-136", 0 ]
				}

			}
, 			{
				"patchline" : 				{
					"destination" : [ "obj-68", 0 ],
					"hidden" : 1,
					"source" : [ "obj-137", 0 ]
				}

			}
, 			{
				"patchline" : 				{
					"destination" : [ "obj-69", 0 ],
					"hidden" : 1,
					"source" : [ "obj-138", 0 ]
				}

			}
, 			{
				"patchline" : 				{
					"destination" : [ "obj-136", 0 ],
					"hidden" : 1,
					"source" : [ "obj-139", 2 ]
				}

			}
, 			{
				"patchline" : 				{
					"destination" : [ "obj-137", 0 ],
					"hidden" : 1,
					"source" : [ "obj-139", 1 ]
				}

			}
, 			{
				"patchline" : 				{
					"destination" : [ "obj-138", 0 ],
					"hidden" : 1,
					"source" : [ "obj-139", 0 ]
				}

			}
, 			{
				"patchline" : 				{
					"destination" : [ "obj-19", 0 ],
					"hidden" : 1,
					"source" : [ "obj-14", 0 ]
				}

			}
, 			{
				"patchline" : 				{
					"destination" : [ "obj-75", 0 ],
					"hidden" : 1,
					"source" : [ "obj-140", 0 ]
				}

			}
, 			{
				"patchline" : 				{
					"destination" : [ "obj-76", 0 ],
					"hidden" : 1,
					"source" : [ "obj-141", 0 ]
				}

			}
, 			{
				"patchline" : 				{
					"destination" : [ "obj-77", 0 ],
					"hidden" : 1,
					"source" : [ "obj-142", 0 ]
				}

			}
, 			{
				"patchline" : 				{
					"destination" : [ "obj-140", 0 ],
					"hidden" : 1,
					"source" : [ "obj-143", 2 ]
				}

			}
, 			{
				"patchline" : 				{
					"destination" : [ "obj-141", 0 ],
					"hidden" : 1,
					"source" : [ "obj-143", 1 ]
				}

			}
, 			{
				"patchline" : 				{
					"destination" : [ "obj-142", 0 ],
					"hidden" : 1,
					"source" : [ "obj-143", 0 ]
				}

			}
, 			{
				"patchline" : 				{
					"destination" : [ "obj-83", 0 ],
					"hidden" : 1,
					"source" : [ "obj-144", 0 ]
				}

			}
, 			{
				"patchline" : 				{
					"destination" : [ "obj-84", 0 ],
					"hidden" : 1,
					"source" : [ "obj-145", 0 ]
				}

			}
, 			{
				"patchline" : 				{
					"destination" : [ "obj-85", 0 ],
					"hidden" : 1,
					"source" : [ "obj-146", 0 ]
				}

			}
, 			{
				"patchline" : 				{
					"destination" : [ "obj-144", 0 ],
					"hidden" : 1,
					"source" : [ "obj-147", 2 ]
				}

			}
, 			{
				"patchline" : 				{
					"destination" : [ "obj-145", 0 ],
					"hidden" : 1,
					"source" : [ "obj-147", 1 ]
				}

			}
, 			{
				"patchline" : 				{
					"destination" : [ "obj-146", 0 ],
					"hidden" : 1,
					"source" : [ "obj-147", 0 ]
				}

			}
, 			{
				"patchline" : 				{
					"destination" : [ "obj-91", 0 ],
					"hidden" : 1,
					"source" : [ "obj-148", 0 ]
				}

			}
, 			{
				"patchline" : 				{
					"destination" : [ "obj-92", 0 ],
					"hidden" : 1,
					"source" : [ "obj-149", 0 ]
				}

			}
, 			{
				"patchline" : 				{
					"destination" : [ "obj-16", 0 ],
					"hidden" : 1,
					"source" : [ "obj-15", 0 ]
				}

			}
, 			{
				"patchline" : 				{
					"destination" : [ "obj-93", 0 ],
					"hidden" : 1,
					"source" : [ "obj-150", 0 ]
				}

			}
, 			{
				"patchline" : 				{
					"destination" : [ "obj-148", 0 ],
					"hidden" : 1,
					"source" : [ "obj-151", 2 ]
				}

			}
, 			{
				"patchline" : 				{
					"destination" : [ "obj-149", 0 ],
					"hidden" : 1,
					"source" : [ "obj-151", 1 ]
				}

			}
, 			{
				"patchline" : 				{
					"destination" : [ "obj-150", 0 ],
					"hidden" : 1,
					"source" : [ "obj-151", 0 ]
				}

			}
, 			{
				"patchline" : 				{
					"destination" : [ "obj-99", 0 ],
					"hidden" : 1,
					"source" : [ "obj-152", 0 ]
				}

			}
, 			{
				"patchline" : 				{
					"destination" : [ "obj-100", 0 ],
					"hidden" : 1,
					"source" : [ "obj-153", 0 ]
				}

			}
, 			{
				"patchline" : 				{
					"destination" : [ "obj-101", 0 ],
					"hidden" : 1,
					"source" : [ "obj-154", 0 ]
				}

			}
, 			{
				"patchline" : 				{
					"destination" : [ "obj-152", 0 ],
					"hidden" : 1,
					"source" : [ "obj-155", 2 ]
				}

			}
, 			{
				"patchline" : 				{
					"destination" : [ "obj-153", 0 ],
					"hidden" : 1,
					"source" : [ "obj-155", 1 ]
				}

			}
, 			{
				"patchline" : 				{
					"destination" : [ "obj-154", 0 ],
					"hidden" : 1,
					"source" : [ "obj-155", 0 ]
				}

			}
, 			{
				"patchline" : 				{
					"destination" : [ "obj-105", 0 ],
					"hidden" : 1,
					"source" : [ "obj-156", 0 ]
				}

			}
, 			{
				"patchline" : 				{
					"destination" : [ "obj-156", 0 ],
					"hidden" : 1,
					"source" : [ "obj-157", 0 ]
				}

			}
, 			{
				"patchline" : 				{
					"destination" : [ "obj-18", 0 ],
					"hidden" : 1,
					"source" : [ "obj-16", 0 ]
				}

			}
, 			{
				"patchline" : 				{
					"destination" : [ "obj-105", 0 ],
					"midpoints" : [ 879.5, 817.0, 619.19140625, 817.0, 619.19140625, 625.0, 121.5, 625.0 ],
					"source" : [ "obj-165", 0 ]
				}

			}
, 			{
				"patchline" : 				{
					"destination" : [ "obj-165", 0 ],
					"hidden" : 1,
					"source" : [ "obj-167", 0 ]
				}

			}
, 			{
				"patchline" : 				{
					"destination" : [ "obj-165", 1 ],
					"hidden" : 1,
					"source" : [ "obj-169", 0 ]
				}

			}
, 			{
				"patchline" : 				{
					"destination" : [ "obj-4", 0 ],
					"source" : [ "obj-17", 0 ]
				}

			}
, 			{
				"patchline" : 				{
					"destination" : [ "obj-165", 2 ],
					"hidden" : 1,
					"source" : [ "obj-171", 0 ]
				}

			}
, 			{
				"patchline" : 				{
					"destination" : [ "obj-165", 3 ],
					"hidden" : 1,
					"source" : [ "obj-173", 0 ]
				}

			}
, 			{
				"patchline" : 				{
					"destination" : [ "obj-4", 1 ],
					"source" : [ "obj-18", 0 ]
				}

			}
, 			{
				"patchline" : 				{
					"destination" : [ "obj-20", 0 ],
					"hidden" : 1,
					"source" : [ "obj-19", 0 ]
				}

			}
, 			{
				"patchline" : 				{
					"destination" : [ "obj-3", 0 ],
					"hidden" : 1,
					"source" : [ "obj-2", 0 ]
				}

			}
, 			{
				"patchline" : 				{
					"destination" : [ "obj-4", 5 ],
					"source" : [ "obj-20", 0 ]
				}

			}
, 			{
				"patchline" : 				{
					"destination" : [ "obj-24", 0 ],
					"hidden" : 1,
					"source" : [ "obj-21", 0 ]
				}

			}
, 			{
				"patchline" : 				{
					"destination" : [ "obj-17", 0 ],
					"hidden" : 1,
					"source" : [ "obj-22", 0 ]
				}

			}
, 			{
				"patchline" : 				{
					"destination" : [ "obj-22", 0 ],
					"hidden" : 1,
					"source" : [ "obj-23", 0 ]
				}

			}
, 			{
				"patchline" : 				{
					"destination" : [ "obj-25", 0 ],
					"hidden" : 1,
					"source" : [ "obj-24", 0 ]
				}

			}
, 			{
				"patchline" : 				{
					"destination" : [ "obj-4", 4 ],
					"source" : [ "obj-25", 0 ]
				}

			}
, 			{
				"patchline" : 				{
					"destination" : [ "obj-105", 0 ],
					"midpoints" : [ 84.5, 556.5, 121.5, 556.5 ],
					"source" : [ "obj-26", 0 ]
				}

			}
, 			{
				"patchline" : 				{
					"destination" : [ "obj-26", 0 ],
					"source" : [ "obj-28", 0 ]
				}

			}
, 			{
				"patchline" : 				{
					"destination" : [ "obj-4", 3 ],
					"source" : [ "obj-3", 0 ]
				}

			}
, 			{
				"patchline" : 				{
					"destination" : [ "obj-28", 0 ],
					"source" : [ "obj-30", 0 ]
				}

			}
, 			{
				"patchline" : 				{
					"destination" : [ "obj-28", 1 ],
					"source" : [ "obj-32", 0 ]
				}

			}
, 			{
				"patchline" : 				{
					"destination" : [ "obj-28", 2 ],
					"source" : [ "obj-34", 0 ]
				}

			}
, 			{
				"patchline" : 				{
					"destination" : [ "obj-107", 0 ],
					"source" : [ "obj-4", 0 ]
				}

			}
, 			{
				"patchline" : 				{
					"destination" : [ "obj-46", 2 ],
					"source" : [ "obj-43", 0 ]
				}

			}
, 			{
				"patchline" : 				{
					"destination" : [ "obj-46", 1 ],
					"source" : [ "obj-44", 0 ]
				}

			}
, 			{
				"patchline" : 				{
					"destination" : [ "obj-46", 0 ],
					"source" : [ "obj-45", 0 ]
				}

			}
, 			{
				"patchline" : 				{
					"destination" : [ "obj-47", 0 ],
					"source" : [ "obj-46", 0 ]
				}

			}
, 			{
				"patchline" : 				{
					"destination" : [ "obj-105", 0 ],
					"midpoints" : [ 296.5, 556.5, 121.5, 556.5 ],
					"source" : [ "obj-47", 0 ]
				}

			}
, 			{
				"patchline" : 				{
					"destination" : [ "obj-6", 0 ],
					"hidden" : 1,
					"source" : [ "obj-5", 0 ]
				}

			}
, 			{
				"patchline" : 				{
					"destination" : [ "obj-62", 2 ],
					"source" : [ "obj-59", 0 ]
				}

			}
, 			{
				"patchline" : 				{
					"destination" : [ "obj-7", 0 ],
					"hidden" : 1,
					"source" : [ "obj-6", 0 ]
				}

			}
, 			{
				"patchline" : 				{
					"destination" : [ "obj-62", 1 ],
					"source" : [ "obj-60", 0 ]
				}

			}
, 			{
				"patchline" : 				{
					"destination" : [ "obj-62", 0 ],
					"source" : [ "obj-61", 0 ]
				}

			}
, 			{
				"patchline" : 				{
					"destination" : [ "obj-63", 0 ],
					"source" : [ "obj-62", 0 ]
				}

			}
, 			{
				"patchline" : 				{
					"destination" : [ "obj-105", 0 ],
					"midpoints" : [ 720.5, 556.5, 121.5, 556.5 ],
					"source" : [ "obj-63", 0 ]
				}

			}
, 			{
				"patchline" : 				{
					"destination" : [ "obj-70", 2 ],
					"source" : [ "obj-67", 0 ]
				}

			}
, 			{
				"patchline" : 				{
					"destination" : [ "obj-70", 1 ],
					"source" : [ "obj-68", 0 ]
				}

			}
, 			{
				"patchline" : 				{
					"destination" : [ "obj-70", 0 ],
					"source" : [ "obj-69", 0 ]
				}

			}
, 			{
				"patchline" : 				{
					"destination" : [ "obj-4", 2 ],
					"source" : [ "obj-7", 0 ]
				}

			}
, 			{
				"patchline" : 				{
					"destination" : [ "obj-71", 0 ],
					"source" : [ "obj-70", 0 ]
				}

			}
, 			{
				"patchline" : 				{
					"destination" : [ "obj-105", 0 ],
					"midpoints" : [ 508.5, 556.5, 121.5, 556.5 ],
					"source" : [ "obj-71", 0 ]
				}

			}
, 			{
				"patchline" : 				{
					"destination" : [ "obj-78", 2 ],
					"source" : [ "obj-75", 0 ]
				}

			}
, 			{
				"patchline" : 				{
					"destination" : [ "obj-78", 1 ],
					"source" : [ "obj-76", 0 ]
				}

			}
, 			{
				"patchline" : 				{
					"destination" : [ "obj-78", 0 ],
					"source" : [ "obj-77", 0 ]
				}

			}
, 			{
				"patchline" : 				{
					"destination" : [ "obj-79", 0 ],
					"source" : [ "obj-78", 0 ]
				}

			}
, 			{
				"patchline" : 				{
					"destination" : [ "obj-105", 0 ],
					"midpoints" : [ 1569.5, 556.5, 121.5, 556.5 ],
					"source" : [ "obj-79", 0 ]
				}

			}
, 			{
				"patchline" : 				{
					"destination" : [ "obj-9", 0 ],
					"hidden" : 1,
					"source" : [ "obj-8", 0 ]
				}

			}
, 			{
				"patchline" : 				{
					"destination" : [ "obj-86", 2 ],
					"source" : [ "obj-83", 0 ]
				}

			}
, 			{
				"patchline" : 				{
					"destination" : [ "obj-86", 1 ],
					"source" : [ "obj-84", 0 ]
				}

			}
, 			{
				"patchline" : 				{
					"destination" : [ "obj-86", 0 ],
					"source" : [ "obj-85", 0 ]
				}

			}
, 			{
				"patchline" : 				{
					"destination" : [ "obj-87", 0 ],
					"source" : [ "obj-86", 0 ]
				}

			}
, 			{
				"patchline" : 				{
					"destination" : [ "obj-105", 0 ],
					"midpoints" : [ 1357.5, 556.5, 121.5, 556.5 ],
					"source" : [ "obj-87", 0 ]
				}

			}
, 			{
				"patchline" : 				{
					"destination" : [ "obj-10", 0 ],
					"hidden" : 1,
					"source" : [ "obj-9", 0 ]
				}

			}
, 			{
				"patchline" : 				{
					"destination" : [ "obj-94", 2 ],
					"source" : [ "obj-91", 0 ]
				}

			}
, 			{
				"patchline" : 				{
					"destination" : [ "obj-94", 1 ],
					"source" : [ "obj-92", 0 ]
				}

			}
, 			{
				"patchline" : 				{
					"destination" : [ "obj-94", 0 ],
					"source" : [ "obj-93", 0 ]
				}

			}
, 			{
				"patchline" : 				{
					"destination" : [ "obj-95", 0 ],
					"source" : [ "obj-94", 0 ]
				}

			}
, 			{
				"patchline" : 				{
					"destination" : [ "obj-105", 0 ],
					"midpoints" : [ 1145.5, 556.5, 121.5, 556.5 ],
					"source" : [ "obj-95", 0 ]
				}

			}
, 			{
				"patchline" : 				{
					"destination" : [ "obj-102", 2 ],
					"source" : [ "obj-99", 0 ]
				}

			}
 ],
		"originid" : "pat-11227",
		"parameters" : 		{
			"obj-108" : [ "mc.live.gain~", "mc.live.gain~", 0 ],
			"obj-10::obj-1" : [ "live.menu[7]", "live.menu", 0 ],
			"obj-10::obj-12::obj-4" : [ "live.numbox[14]", "live.numbox", 0 ],
			"obj-10::obj-182" : [ "spat_input_mute_button[7]", "spat_input_mute_button", 0 ],
			"obj-10::obj-2" : [ "live.gain~[7]", " ", 0 ],
			"obj-10::obj-23" : [ "live.toggle[23]", "live.toggle", 0 ],
			"obj-10::obj-26::obj-56" : [ "live.button[15]", "live.button[1]", 0 ],
			"obj-10::obj-26::obj-58" : [ "live.toggle[22]", "live.toggle[1]", 0 ],
			"obj-10::obj-26::obj-59" : [ "live.numbox[15]", "live.numbox[1]", 0 ],
			"obj-10::obj-43::obj-8" : [ "live.dial[7]", "freq", 0 ],
			"obj-10::obj-46::obj-36" : [ "select folder[8]", "select folder", 0 ],
			"obj-10::obj-46::obj-70" : [ "live.toggle[21]", "live.toggle", 0 ],
			"obj-10::obj-46::obj-8" : [ "live.drop[7]", "live.drop", 0 ],
			"obj-10::obj-5::obj-12" : [ "live.button[14]", "live.button", 0 ],
			"obj-13::obj-1" : [ "live.menu[6]", "live.menu", 0 ],
			"obj-13::obj-12::obj-4" : [ "live.numbox[12]", "live.numbox", 0 ],
			"obj-13::obj-182" : [ "spat_input_mute_button[6]", "spat_input_mute_button", 0 ],
			"obj-13::obj-2" : [ "live.gain~[6]", " ", 0 ],
			"obj-13::obj-23" : [ "live.toggle[20]", "live.toggle", 0 ],
			"obj-13::obj-26::obj-56" : [ "live.button[13]", "live.button[1]", 0 ],
			"obj-13::obj-26::obj-58" : [ "live.toggle[19]", "live.toggle[1]", 0 ],
			"obj-13::obj-26::obj-59" : [ "live.numbox[13]", "live.numbox[1]", 0 ],
			"obj-13::obj-43::obj-8" : [ "live.dial[6]", "freq", 0 ],
			"obj-13::obj-46::obj-36" : [ "select folder[7]", "select folder", 0 ],
			"obj-13::obj-46::obj-70" : [ "live.toggle[18]", "live.toggle", 0 ],
			"obj-13::obj-46::obj-8" : [ "live.drop[6]", "live.drop", 0 ],
			"obj-13::obj-5::obj-12" : [ "live.button[12]", "live.button", 0 ],
			"obj-17::obj-1" : [ "live.menu", "live.menu", 0 ],
			"obj-17::obj-12::obj-4" : [ "live.numbox", "live.numbox", 0 ],
			"obj-17::obj-182" : [ "spat_input_mute_button", "spat_input_mute_button", 0 ],
			"obj-17::obj-2" : [ "live.gain~", " ", 0 ],
			"obj-17::obj-23" : [ "live.toggle", "live.toggle", 0 ],
			"obj-17::obj-26::obj-56" : [ "live.button[1]", "live.button[1]", 0 ],
			"obj-17::obj-26::obj-58" : [ "live.toggle[1]", "live.toggle[1]", 0 ],
			"obj-17::obj-26::obj-59" : [ "live.numbox[1]", "live.numbox[1]", 0 ],
			"obj-17::obj-43::obj-8" : [ "live.dial", "freq", 0 ],
			"obj-17::obj-46::obj-36" : [ "select folder[1]", "select folder", 0 ],
			"obj-17::obj-46::obj-70" : [ "live.toggle[2]", "live.toggle", 0 ],
			"obj-17::obj-46::obj-8" : [ "live.drop", "live.drop", 0 ],
			"obj-17::obj-5::obj-12" : [ "live.button", "live.button", 0 ],
			"obj-18::obj-1" : [ "live.menu[1]", "live.menu", 0 ],
			"obj-18::obj-12::obj-4" : [ "live.numbox[2]", "live.numbox", 0 ],
			"obj-18::obj-182" : [ "spat_input_mute_button[1]", "spat_input_mute_button", 0 ],
			"obj-18::obj-2" : [ "live.gain~[1]", " ", 0 ],
			"obj-18::obj-23" : [ "live.toggle[5]", "live.toggle", 0 ],
			"obj-18::obj-26::obj-56" : [ "live.button[3]", "live.button[1]", 0 ],
			"obj-18::obj-26::obj-58" : [ "live.toggle[4]", "live.toggle[1]", 0 ],
			"obj-18::obj-26::obj-59" : [ "live.numbox[3]", "live.numbox[1]", 0 ],
			"obj-18::obj-43::obj-8" : [ "live.dial[1]", "freq", 0 ],
			"obj-18::obj-46::obj-36" : [ "select folder[2]", "select folder", 0 ],
			"obj-18::obj-46::obj-70" : [ "live.toggle[3]", "live.toggle", 0 ],
			"obj-18::obj-46::obj-8" : [ "live.drop[1]", "live.drop", 0 ],
			"obj-18::obj-5::obj-12" : [ "live.button[2]", "live.button", 0 ],
			"obj-20::obj-1" : [ "live.menu[5]", "live.menu", 0 ],
			"obj-20::obj-12::obj-4" : [ "live.numbox[10]", "live.numbox", 0 ],
			"obj-20::obj-182" : [ "spat_input_mute_button[5]", "spat_input_mute_button", 0 ],
			"obj-20::obj-2" : [ "live.gain~[5]", " ", 0 ],
			"obj-20::obj-23" : [ "live.toggle[17]", "live.toggle", 0 ],
			"obj-20::obj-26::obj-56" : [ "live.button[11]", "live.button[1]", 0 ],
			"obj-20::obj-26::obj-58" : [ "live.toggle[16]", "live.toggle[1]", 0 ],
			"obj-20::obj-26::obj-59" : [ "live.numbox[11]", "live.numbox[1]", 0 ],
			"obj-20::obj-43::obj-8" : [ "live.dial[5]", "freq", 0 ],
			"obj-20::obj-46::obj-36" : [ "select folder[6]", "select folder", 0 ],
			"obj-20::obj-46::obj-70" : [ "live.toggle[15]", "live.toggle", 0 ],
			"obj-20::obj-46::obj-8" : [ "live.drop[5]", "live.drop", 0 ],
			"obj-20::obj-5::obj-12" : [ "live.button[10]", "live.button", 0 ],
			"obj-25::obj-1" : [ "live.menu[4]", "live.menu", 0 ],
			"obj-25::obj-12::obj-4" : [ "live.numbox[8]", "live.numbox", 0 ],
			"obj-25::obj-182" : [ "spat_input_mute_button[4]", "spat_input_mute_button", 0 ],
			"obj-25::obj-2" : [ "live.gain~[4]", " ", 0 ],
			"obj-25::obj-23" : [ "live.toggle[14]", "live.toggle", 0 ],
			"obj-25::obj-26::obj-56" : [ "live.button[9]", "live.button[1]", 0 ],
			"obj-25::obj-26::obj-58" : [ "live.toggle[13]", "live.toggle[1]", 0 ],
			"obj-25::obj-26::obj-59" : [ "live.numbox[9]", "live.numbox[1]", 0 ],
			"obj-25::obj-43::obj-8" : [ "live.dial[4]", "freq", 0 ],
			"obj-25::obj-46::obj-36" : [ "select folder[5]", "select folder", 0 ],
			"obj-25::obj-46::obj-70" : [ "live.toggle[12]", "live.toggle", 0 ],
			"obj-25::obj-46::obj-8" : [ "live.drop[4]", "live.drop", 0 ],
			"obj-25::obj-5::obj-12" : [ "live.button[8]", "live.button", 0 ],
			"obj-3::obj-1" : [ "live.menu[3]", "live.menu", 0 ],
			"obj-3::obj-12::obj-4" : [ "live.numbox[6]", "live.numbox", 0 ],
			"obj-3::obj-182" : [ "spat_input_mute_button[3]", "spat_input_mute_button", 0 ],
			"obj-3::obj-2" : [ "live.gain~[3]", " ", 0 ],
			"obj-3::obj-23" : [ "live.toggle[11]", "live.toggle", 0 ],
			"obj-3::obj-26::obj-56" : [ "live.button[7]", "live.button[1]", 0 ],
			"obj-3::obj-26::obj-58" : [ "live.toggle[10]", "live.toggle[1]", 0 ],
			"obj-3::obj-26::obj-59" : [ "live.numbox[7]", "live.numbox[1]", 0 ],
			"obj-3::obj-43::obj-8" : [ "live.dial[3]", "freq", 0 ],
			"obj-3::obj-46::obj-36" : [ "select folder[4]", "select folder", 0 ],
			"obj-3::obj-46::obj-70" : [ "live.toggle[9]", "live.toggle", 0 ],
			"obj-3::obj-46::obj-8" : [ "live.drop[3]", "live.drop", 0 ],
			"obj-3::obj-5::obj-12" : [ "live.button[6]", "live.button", 0 ],
			"obj-7::obj-1" : [ "live.menu[2]", "live.menu", 0 ],
			"obj-7::obj-12::obj-4" : [ "live.numbox[4]", "live.numbox", 0 ],
			"obj-7::obj-182" : [ "spat_input_mute_button[2]", "spat_input_mute_button", 0 ],
			"obj-7::obj-2" : [ "live.gain~[2]", " ", 0 ],
			"obj-7::obj-23" : [ "live.toggle[8]", "live.toggle", 0 ],
			"obj-7::obj-26::obj-56" : [ "live.button[5]", "live.button[1]", 0 ],
			"obj-7::obj-26::obj-58" : [ "live.toggle[7]", "live.toggle[1]", 0 ],
			"obj-7::obj-26::obj-59" : [ "live.numbox[5]", "live.numbox[1]", 0 ],
			"obj-7::obj-43::obj-8" : [ "live.dial[2]", "freq", 0 ],
			"obj-7::obj-46::obj-36" : [ "select folder[3]", "select folder", 0 ],
			"obj-7::obj-46::obj-70" : [ "live.toggle[6]", "live.toggle", 0 ],
			"obj-7::obj-46::obj-8" : [ "live.drop[2]", "live.drop", 0 ],
			"obj-7::obj-5::obj-12" : [ "live.button[4]", "live.button", 0 ],
			"parameterbanks" : 			{
				"0" : 				{
					"index" : 0,
					"name" : "",
					"parameters" : [ "-", "-", "-", "-", "-", "-", "-", "-" ]
				}

			}
,
			"parameter_overrides" : 			{
				"obj-10::obj-1" : 				{
					"parameter_longname" : "live.menu[7]"
				}
,
				"obj-10::obj-12::obj-4" : 				{
					"parameter_longname" : "live.numbox[14]"
				}
,
				"obj-10::obj-182" : 				{
					"parameter_longname" : "spat_input_mute_button[7]"
				}
,
				"obj-10::obj-2" : 				{
					"parameter_longname" : "live.gain~[7]"
				}
,
				"obj-10::obj-23" : 				{
					"parameter_longname" : "live.toggle[23]"
				}
,
				"obj-10::obj-26::obj-56" : 				{
					"parameter_longname" : "live.button[15]"
				}
,
				"obj-10::obj-26::obj-58" : 				{
					"parameter_longname" : "live.toggle[22]"
				}
,
				"obj-10::obj-26::obj-59" : 				{
					"parameter_longname" : "live.numbox[15]"
				}
,
				"obj-10::obj-43::obj-8" : 				{
					"parameter_longname" : "live.dial[7]"
				}
,
				"obj-10::obj-46::obj-36" : 				{
					"parameter_longname" : "select folder[8]"
				}
,
				"obj-10::obj-46::obj-70" : 				{
					"parameter_longname" : "live.toggle[21]"
				}
,
				"obj-10::obj-46::obj-8" : 				{
					"parameter_longname" : "live.drop[7]"
				}
,
				"obj-10::obj-5::obj-12" : 				{
					"parameter_longname" : "live.button[14]"
				}
,
				"obj-13::obj-1" : 				{
					"parameter_longname" : "live.menu[6]"
				}
,
				"obj-13::obj-12::obj-4" : 				{
					"parameter_longname" : "live.numbox[12]"
				}
,
				"obj-13::obj-182" : 				{
					"parameter_longname" : "spat_input_mute_button[6]"
				}
,
				"obj-13::obj-2" : 				{
					"parameter_longname" : "live.gain~[6]"
				}
,
				"obj-13::obj-23" : 				{
					"parameter_longname" : "live.toggle[20]"
				}
,
				"obj-13::obj-26::obj-56" : 				{
					"parameter_longname" : "live.button[13]"
				}
,
				"obj-13::obj-26::obj-58" : 				{
					"parameter_longname" : "live.toggle[19]"
				}
,
				"obj-13::obj-26::obj-59" : 				{
					"parameter_longname" : "live.numbox[13]"
				}
,
				"obj-13::obj-43::obj-8" : 				{
					"parameter_longname" : "live.dial[6]"
				}
,
				"obj-13::obj-46::obj-36" : 				{
					"parameter_longname" : "select folder[7]"
				}
,
				"obj-13::obj-46::obj-70" : 				{
					"parameter_longname" : "live.toggle[18]"
				}
,
				"obj-13::obj-46::obj-8" : 				{
					"parameter_longname" : "live.drop[6]"
				}
,
				"obj-13::obj-5::obj-12" : 				{
					"parameter_longname" : "live.button[12]"
				}
,
				"obj-18::obj-1" : 				{
					"parameter_longname" : "live.menu[1]"
				}
,
				"obj-18::obj-12::obj-4" : 				{
					"parameter_longname" : "live.numbox[2]"
				}
,
				"obj-18::obj-182" : 				{
					"parameter_longname" : "spat_input_mute_button[1]"
				}
,
				"obj-18::obj-2" : 				{
					"parameter_longname" : "live.gain~[1]"
				}
,
				"obj-18::obj-23" : 				{
					"parameter_longname" : "live.toggle[5]"
				}
,
				"obj-18::obj-26::obj-56" : 				{
					"parameter_longname" : "live.button[3]"
				}
,
				"obj-18::obj-26::obj-58" : 				{
					"parameter_longname" : "live.toggle[4]"
				}
,
				"obj-18::obj-26::obj-59" : 				{
					"parameter_longname" : "live.numbox[3]"
				}
,
				"obj-18::obj-43::obj-8" : 				{
					"parameter_longname" : "live.dial[1]"
				}
,
				"obj-18::obj-46::obj-36" : 				{
					"parameter_longname" : "select folder[2]"
				}
,
				"obj-18::obj-46::obj-70" : 				{
					"parameter_longname" : "live.toggle[3]"
				}
,
				"obj-18::obj-46::obj-8" : 				{
					"parameter_longname" : "live.drop[1]"
				}
,
				"obj-18::obj-5::obj-12" : 				{
					"parameter_longname" : "live.button[2]"
				}
,
				"obj-20::obj-1" : 				{
					"parameter_longname" : "live.menu[5]"
				}
,
				"obj-20::obj-12::obj-4" : 				{
					"parameter_longname" : "live.numbox[10]"
				}
,
				"obj-20::obj-182" : 				{
					"parameter_longname" : "spat_input_mute_button[5]"
				}
,
				"obj-20::obj-2" : 				{
					"parameter_longname" : "live.gain~[5]"
				}
,
				"obj-20::obj-23" : 				{
					"parameter_longname" : "live.toggle[17]"
				}
,
				"obj-20::obj-26::obj-56" : 				{
					"parameter_longname" : "live.button[11]"
				}
,
				"obj-20::obj-26::obj-58" : 				{
					"parameter_longname" : "live.toggle[16]"
				}
,
				"obj-20::obj-26::obj-59" : 				{
					"parameter_longname" : "live.numbox[11]"
				}
,
				"obj-20::obj-43::obj-8" : 				{
					"parameter_longname" : "live.dial[5]"
				}
,
				"obj-20::obj-46::obj-36" : 				{
					"parameter_longname" : "select folder[6]"
				}
,
				"obj-20::obj-46::obj-70" : 				{
					"parameter_longname" : "live.toggle[15]"
				}
,
				"obj-20::obj-46::obj-8" : 				{
					"parameter_longname" : "live.drop[5]"
				}
,
				"obj-20::obj-5::obj-12" : 				{
					"parameter_longname" : "live.button[10]"
				}
,
				"obj-25::obj-1" : 				{
					"parameter_longname" : "live.menu[4]"
				}
,
				"obj-25::obj-12::obj-4" : 				{
					"parameter_longname" : "live.numbox[8]"
				}
,
				"obj-25::obj-182" : 				{
					"parameter_longname" : "spat_input_mute_button[4]"
				}
,
				"obj-25::obj-2" : 				{
					"parameter_longname" : "live.gain~[4]"
				}
,
				"obj-25::obj-23" : 				{
					"parameter_longname" : "live.toggle[14]"
				}
,
				"obj-25::obj-26::obj-56" : 				{
					"parameter_longname" : "live.button[9]"
				}
,
				"obj-25::obj-26::obj-58" : 				{
					"parameter_longname" : "live.toggle[13]"
				}
,
				"obj-25::obj-26::obj-59" : 				{
					"parameter_longname" : "live.numbox[9]"
				}
,
				"obj-25::obj-43::obj-8" : 				{
					"parameter_longname" : "live.dial[4]"
				}
,
				"obj-25::obj-46::obj-36" : 				{
					"parameter_longname" : "select folder[5]"
				}
,
				"obj-25::obj-46::obj-70" : 				{
					"parameter_longname" : "live.toggle[12]"
				}
,
				"obj-25::obj-46::obj-8" : 				{
					"parameter_longname" : "live.drop[4]"
				}
,
				"obj-25::obj-5::obj-12" : 				{
					"parameter_longname" : "live.button[8]"
				}
,
				"obj-3::obj-1" : 				{
					"parameter_longname" : "live.menu[3]"
				}
,
				"obj-3::obj-12::obj-4" : 				{
					"parameter_longname" : "live.numbox[6]"
				}
,
				"obj-3::obj-182" : 				{
					"parameter_longname" : "spat_input_mute_button[3]"
				}
,
				"obj-3::obj-2" : 				{
					"parameter_longname" : "live.gain~[3]"
				}
,
				"obj-3::obj-23" : 				{
					"parameter_longname" : "live.toggle[11]"
				}
,
				"obj-3::obj-26::obj-56" : 				{
					"parameter_longname" : "live.button[7]"
				}
,
				"obj-3::obj-26::obj-58" : 				{
					"parameter_longname" : "live.toggle[10]"
				}
,
				"obj-3::obj-26::obj-59" : 				{
					"parameter_longname" : "live.numbox[7]"
				}
,
				"obj-3::obj-43::obj-8" : 				{
					"parameter_longname" : "live.dial[3]"
				}
,
				"obj-3::obj-46::obj-36" : 				{
					"parameter_longname" : "select folder[4]"
				}
,
				"obj-3::obj-46::obj-70" : 				{
					"parameter_longname" : "live.toggle[9]"
				}
,
				"obj-3::obj-46::obj-8" : 				{
					"parameter_longname" : "live.drop[3]"
				}
,
				"obj-3::obj-5::obj-12" : 				{
					"parameter_longname" : "live.button[6]"
				}
,
				"obj-7::obj-1" : 				{
					"parameter_longname" : "live.menu[2]"
				}
,
				"obj-7::obj-12::obj-4" : 				{
					"parameter_longname" : "live.numbox[4]"
				}
,
				"obj-7::obj-182" : 				{
					"parameter_longname" : "spat_input_mute_button[2]"
				}
,
				"obj-7::obj-2" : 				{
					"parameter_longname" : "live.gain~[2]"
				}
,
				"obj-7::obj-23" : 				{
					"parameter_longname" : "live.toggle[8]"
				}
,
				"obj-7::obj-26::obj-56" : 				{
					"parameter_longname" : "live.button[5]"
				}
,
				"obj-7::obj-26::obj-58" : 				{
					"parameter_longname" : "live.toggle[7]"
				}
,
				"obj-7::obj-26::obj-59" : 				{
					"parameter_longname" : "live.numbox[5]"
				}
,
				"obj-7::obj-43::obj-8" : 				{
					"parameter_longname" : "live.dial[2]"
				}
,
				"obj-7::obj-46::obj-36" : 				{
					"parameter_longname" : "select folder[3]"
				}
,
				"obj-7::obj-46::obj-70" : 				{
					"parameter_longname" : "live.toggle[6]"
				}
,
				"obj-7::obj-46::obj-8" : 				{
					"parameter_longname" : "live.drop[2]"
				}
,
				"obj-7::obj-5::obj-12" : 				{
					"parameter_longname" : "live.button[4]"
				}

			}
,
			"inherited_shortname" : 1
		}
,
		"dependency_cache" : [ 			{
				"name" : "o.expr.codebox.mxo",
				"type" : "iLaX"
			}
, 			{
				"name" : "o.pack.mxo",
				"type" : "iLaX"
			}
, 			{
				"name" : "o.route.mxo",
				"type" : "iLaX"
			}
, 			{
				"name" : "o.select.mxo",
				"type" : "iLaX"
			}
, 			{
				"name" : "spat5.converter.mxo",
				"type" : "iLaX"
			}
, 			{
				"name" : "spat5.input~.maxpat",
				"bootpath" : "~/Documents/Max 9/Packages/spat5/patchers",
				"patcherrelativepath" : "../../../../Max 9/Packages/spat5/patchers",
				"type" : "JSON",
				"implicit" : 1
			}
, 			{
				"name" : "spat5.loop.png",
				"bootpath" : "~/Documents/Max 9/Packages/spat5/media/images",
				"patcherrelativepath" : "../../../../Max 9/Packages/spat5/media/images",
				"type" : "PNG",
				"implicit" : 1
			}
, 			{
				"name" : "spat5.oper.mxo",
				"type" : "iLaX"
			}
, 			{
				"name" : "spat5.spat~.mxo",
				"type" : "iLaX"
			}
, 			{
				"name" : "thru.maxpat",
				"bootpath" : "C74:/patchers/m4l/Pluggo for Live resources/patches",
				"type" : "JSON",
				"implicit" : 1
			}
 ],
		"autosave" : 0
	}

}
